<svg xmlns="http://www.w3.org/2000/svg" xmlns:xlink="http://www.w3.org/1999/xlink" width="252.142" height="246.064" viewBox="0 0 252.142 246.064"><defs><linearGradient id="a" x1="1.091" y1="1.163" x2="0.386" y2="0.408" gradientUnits="objectBoundingBox"><stop offset="0" stop-color="#dae3fe"/><stop offset="1" stop-color="#e9effd"/></linearGradient><linearGradient id="b" x1="1.366" y1="1.414" x2="-0.471" y2="-0.466" gradientUnits="objectBoundingBox"><stop offset="0" stop-color="#09005d"/><stop offset="1" stop-color="#1a0f91"/></linearGradient><linearGradient id="c" y1="0.5" x2="1" y2="0.5" gradientUnits="objectBoundingBox"><stop offset="0" stop-color="#4f52ff"/><stop offset="1" stop-color="#4042e2"/></linearGradient><linearGradient id="d" x1="0.318" y1="0.725" x2="1.557" y2="-1" gradientUnits="objectBoundingBox"><stop offset="0" stop-color="#e1473d"/><stop offset="1" stop-color="#e9605a"/></linearGradient><linearGradient id="e" x1="0.087" y1="0.632" x2="0.062" y2="-0.515" gradientUnits="objectBoundingBox"><stop offset="0" stop-color="#febbba"/><stop offset="1" stop-color="#ff928e"/></linearGradient><linearGradient id="f" x1="32.235" y1="-0.401" x2="30.994" y2="0.379" xlink:href="#e"/><linearGradient id="g" x1="0.701" y1="-0.441" x2="0.335" y2="0.986" xlink:href="#b"/><linearGradient id="h" x1="138.138" y1="-2.415" x2="132.799" y2="-0.099" xlink:href="#e"/><linearGradient id="i" x1="0.567" y1="0.487" x2="3.855" y2="-1.657" xlink:href="#d"/><linearGradient id="j" x1="-0.853" y1="-2.666" x2="1.684" y2="3.295" gradientUnits="objectBoundingBox"><stop offset="0" stop-color="#ff928e"/><stop offset="1" stop-color="#fe7062"/></linearGradient><linearGradient id="k" x1="0.331" y1="-0.467" x2="0.739" y2="1.96" xlink:href="#e"/><linearGradient id="l" x1="-0.165" y1="-3.58" x2="0.749" y2="2.625" xlink:href="#e"/><linearGradient id="m" x1="0.363" y1="1.686" x2="0.88" y2="-2.199" xlink:href="#c"/><linearGradient id="n" x1="-0.189" y1="3.741" x2="1.231" y2="-2.937" xlink:href="#c"/><linearGradient id="o" x1="0.338" y1="0.635" x2="1.36" y2="-0.223" xlink:href="#c"/><linearGradient id="p" x1="0.546" y1="-0.486" x2="0.49" y2="0.756" xlink:href="#c"/><linearGradient id="q" x1="0.293" y1="4.11" x2="1.225" y2="-11.274" xlink:href="#c"/><linearGradient id="r" x1="0.137" y1="2.933" x2="1.084" y2="1.923" xlink:href="#c"/><linearGradient id="t" x1="3.288" y1="1.024" x2="-3.503" y2="1.902" xlink:href="#c"/><linearGradient id="u" x1="2.178" y1="-1.352" x2="0.418" y2="0.617" xlink:href="#c"/><linearGradient id="v" x1="2.284" y1="-0.172" x2="5.227" y2="-1.337" xlink:href="#c"/><linearGradient id="w" x1="0.325" y1="-1.15" x2="0.432" y2="-0.301" xlink:href="#j"/><linearGradient id="x" x1="-2.585" y1="-0.184" x2="-0.586" y2="2.04" xlink:href="#j"/><linearGradient id="y" x1="-223.254" y1="-0.166" x2="-241.297" y2="3.358" xlink:href="#b"/><linearGradient id="z" x1="-279.697" y1="-0.086" x2="-302.459" y2="3.376" xlink:href="#b"/><linearGradient id="aa" x1="-246.219" y1="-0.015" x2="-266.437" y2="3.448" xlink:href="#b"/><linearGradient id="ab" x1="-164.102" y1="0.121" x2="-177.796" y2="3.397" xlink:href="#b"/><linearGradient id="ac" x1="-380.257" y1="0.174" x2="-412.261" y2="3.699" xlink:href="#b"/><linearGradient id="ad" x1="-238.455" y1="0.227" x2="-258.67" y2="3.744" xlink:href="#b"/><linearGradient id="ae" x1="-149.869" y1="-0.19" x2="-161.865" y2="2.95" xlink:href="#b"/><linearGradient id="af" x1="-3.401" y1="-0.137" x2="-1.401" y2="2.086" xlink:href="#j"/><linearGradient id="ag" x1="-285.519" y1="-0.166" x2="-303.563" y2="3.358" xlink:href="#b"/><linearGradient id="ah" x1="-358.278" y1="-0.086" x2="-381.042" y2="3.376" xlink:href="#b"/><linearGradient id="ai" x1="-315.976" y1="-0.015" x2="-336.194" y2="3.448" xlink:href="#b"/><linearGradient id="aj" x1="-211.352" y1="0.121" x2="-225.046" y2="3.397" xlink:href="#b"/><linearGradient id="ak" x1="-490.643" y1="0.174" x2="-522.644" y2="3.699" xlink:href="#b"/><linearGradient id="al" x1="-308.18" y1="0.227" x2="-328.393" y2="3.744" xlink:href="#b"/><linearGradient id="am" x1="-191.267" y1="-0.19" x2="-203.264" y2="2.95" xlink:href="#b"/></defs><g transform="translate(-426.902 -455)"><path d="M696.257,666.575a94.67,94.67,0,0,1-16.626,13.5c-43.058,28.75-92.278,20.464-107.5,17.631-24.552-4.57-45.277-7.793-63.083-23.881-40.462-36.556-38.494-112.814-7.576-160.052,3.666-5.6,34.537-51.362,83.864-57.81,1.206-.158,2.107-.247,2.9-.331,7.631-.808,54.917-5.072,93.474,27.231a115.027,115.027,0,0,1,22.638,25.685C734.462,555.058,734.558,627.1,696.257,666.575Z" transform="translate(-47.001 0)" fill="url(#a)"/><g transform="translate(480.688 465.638)"><g transform="translate(0 0)"><path d="M1046.636,576.394a11.415,11.415,0,0,0-10.415,11.349c-.1,36.131-.272,160.755,2.083,204.865a8.865,8.865,0,0,0,8.76,8.395c23.145.249,89.72.707,127.515-1.711a14.927,14.927,0,0,0,13.988-14.912c-.046-37.92-.652-144.566-5.847-193.312a12.181,12.181,0,0,0-11.173-10.856C1146.305,578.246,1079.272,573.556,1046.636,576.394Z" transform="translate(-1036.171 -575.505)" fill="url(#b)"/><path d="M1133.9,708.974c-.455,30.907-1.749,133.72.51,171.667a10.545,10.545,0,0,0,9.958,10.111c21.9.763,78.07,2.24,110.076-1.281a11.854,11.854,0,0,0,10.321-11.678c.8-31.54,2.963-127.3.767-164.821a11.669,11.669,0,0,0-10.656-11.148c-23.716-1.6-84.616-5.283-111.832-3.017A10.18,10.18,0,0,0,1133.9,708.974Z" transform="translate(-1124.557 -687.267)" fill="#91b3fa"/><path d="M1741.35,628.179a1.6,1.6,0,0,0,1.553,1.569c4.215.128,16.087.492,21.394.683a1.6,1.6,0,0,0,1.625-1.943,1.637,1.637,0,0,0-1.494-1.438,204.923,204.923,0,0,0-21.576-.51A1.657,1.657,0,0,0,1741.35,628.179Z" transform="translate(-1679.089 -621.916)" fill="url(#c)"/></g><g transform="translate(9.353 51.441)"><path d="M1392.223,1832.51s30.189-7.573,62.087-3.006a31.013,31.013,0,0,1,21.767,14.171c8.726,13.81,21.064,38.418,18.454,64.084l-13.7,3.387s-9.466-30.458-20.12-42.854c0,0-12.617,28.76-11.979,44.553q.027.669.087,1.307c1.448,15.451-60.567,2.883-60.567,2.883Z" transform="translate(-1366.527 -1768.908)" fill="url(#d)"/><path d="M1734.15,1536.885l-6.427,20.473a4.647,4.647,0,0,0,1.49,5.094c3.44,2.65,10.24,6.868,18.548,6.747a3.067,3.067,0,0,0,2.9-2.912l2.284-34.219Z" transform="translate(-1675.817 -1499.066)" fill="url(#e)"/><g transform="translate(43.87)"><path d="M1789.991,1329.079s2.5,16.123.924,23.828-1.23,13.062-10.413,12.284-15.43-7.1-17.45-15.713c0,0-3.216-13.305-.553-17.709S1789.991,1329.079,1789.991,1329.079Z" transform="translate(-1750.641 -1313.697)" fill="url(#f)"/><path d="M1655.907,1189.347l1.11.292s-2.109-10.583,2.343-11.175,21.223.344,26.141-4.4c4.742-4.575,3.637-12.385-.264-15.514a.611.611,0,0,0-.825.08l-.548.6a.616.616,0,0,1-1.07-.4h0a.614.614,0,0,0-1.026-.444c-1.5,1.413-5.064,3.411-13.069,2.814-11.359-.847-19.673,1.656-21.817,9.1a.617.617,0,0,1-1.052.246c-.672-.7-1.892-1.263-3.98-.274-3.632,1.72-4.12,8.528,1,15.579a.613.613,0,0,1-.28.948c-1.384.459-3.627,1.827.3,5.468,4.015,3.724,6.851,4.178,7.964,4.186a.617.617,0,0,0,.614-.5l1.334-6.743a.616.616,0,0,1,.761-.477Z" transform="translate(-1639.066 -1158.214)" fill="url(#g)"/><path d="M1756.789,1439.35s.026-9.873-4.8-8.371-.571,10.92,2.67,12.141Z" transform="translate(-1740.039 -1406.758)" fill="url(#h)"/></g><g transform="translate(0 63.602)"><path d="M1169.074,1943.535c-1.337-9.443,7.37-26.606,11.415-31.874a8.753,8.753,0,0,0,1.821-5.248c.119-13.374-5.5-21.963-14.495-27.73,0,0-32.656,38.044-24.34,67.307a24.617,24.617,0,0,0,4.05,8.2C1148.835,1943.167,1162.652,1944.044,1169.074,1943.535Z" transform="translate(-1142.119 -1878.683)" fill="url(#i)"/><path d="M1429.365,2273.254l-1.244-.142c1.055-9.26,9.181-20.693,12.625-25.178l.993.763C1438.359,2253.1,1430.385,2264.306,1429.365,2273.254Z" transform="translate(-1402.873 -2215.337)" fill="url(#j)"/><path d="M1220.8,2608.291c-3.673.006-20.569.585-22.129,10.665,14.573,19.274,54.74,12.32,54.74,12.32v-7.5s-25.179-4.573-31.58-14.911A1.21,1.21,0,0,0,1220.8,2608.291Z" transform="translate(-1193.676 -2543.882)" fill="url(#k)"/></g><path d="M1779.7,2745.879s5.931-13.995,16.381-9.031,9.629,8.212,9.629,8.212Z" transform="translate(-1723.416 -2596.517)" fill="url(#l)"/><path d="M1764.547,2778.658h0a1.984,1.984,0,0,0,2.047,1.828l54.153-1.889a1.983,1.983,0,0,0,1.824-1.391l1.572-5.03a1.984,1.984,0,0,0-1.788-2.573l-19.748-1.049a2,2,0,0,0-.534.045l-35.977,7.968A1.983,1.983,0,0,0,1764.547,2778.658Z" transform="translate(-1709.594 -2626.392)" fill="url(#m)"/><path d="M2175.8,2788.943l1.49-6.944,20.285.969-1.334,5.76Z" transform="translate(-2084.55 -2638.653)" fill="url(#n)"/><path d="M1977.3,1934.84c-1.148,9.381-6.312,47.494-7.791,58.384a2.5,2.5,0,0,0,2.553,2.834l87.61-2.507a2.5,2.5,0,0,0,2.373-1.96l13.628-61.376a2.5,2.5,0,0,0-2.591-3.042l-93.444,5.473A2.5,2.5,0,0,0,1977.3,1934.84Z" transform="translate(-1896.451 -1859.286)" fill="url(#o)"/><path d="M2323.2,2420.5l-12.948,36.751,30.108.638,2.507-37.168a2.888,2.888,0,0,0-3.073-3.076l-14.06.934A2.889,2.889,0,0,0,2323.2,2420.5Z" transform="translate(-2207.127 -2306.459)" fill="url(#p)"/><path d="M2171.163,2840.3h0a1.563,1.563,0,0,0,1.486,2.051H2219.8a1.564,1.564,0,0,0,1.564-1.564v-2.022a1.563,1.563,0,0,0-1.631-1.562l-47.151,2.022A1.564,1.564,0,0,0,2171.163,2840.3Z" transform="translate(-2080.248 -2688.983)" fill="url(#q)"/><path d="M2036.594,2011.7l-.621-.078,4.3-33.947a4.42,4.42,0,0,1,4.116-3.854l80.751-4.877.038.625-80.751,4.877a3.793,3.793,0,0,0-3.533,3.308Z" transform="translate(-1957.064 -1897.375)" fill="#91b3fa"/><rect width="7.408" height="0.626" transform="matrix(0.125, -0.992, 0.992, 0.125, 76.754, 131.268)" fill="#91b3fa"/><g transform="translate(53.31 2.197)"><g transform="translate(5.871 31.018)"><path d="M1827.942,1544.248c-9.729.735-15.384-9.325-15.44-9.427l.652-.359c.054.1,5.484,9.742,14.732,9.044Z" transform="translate(-1812.502 -1534.462)" fill="url(#r)"/><path d="M1982.013,1630.271a1.044,1.044,0,0,1-1.044,1.044h-2.784a1.044,1.044,0,0,1-1.044-1.044h0a1.044,1.044,0,0,1,1.044-1.044h2.784a1.044,1.044,0,0,1,1.044,1.044Z" transform="translate(-1962.607 -1620.861)" fill="url(#c)"/></g><path d="M1793.435,1203.314s3.492-17.911,13.78-19.6a6.958,6.958,0,0,0-5.951.124c-3.037,1.591-10.714,10.309-10.4,19.918C1792.951,1204.507,1793.435,1203.314,1793.435,1203.314Z" transform="translate(-1786.894 -1183.096)" fill="url(#t)"/><path d="M1750.754,1401.661c-5.348,1.086-4.691,7.849-4.691,7.849-.385,4.908,1.047,7.342,2.883,8.5a4.226,4.226,0,0,0,6.467-3.264c.1-1.336.212-2.606.311-3.057C1755.965,1410.6,1756.1,1400.576,1750.754,1401.661Z" transform="translate(-1746 -1382.292)" fill="url(#u)"/><path d="M1765.519,1421.507a2.431,2.431,0,0,0-2.652,1.432c-3.2,7.405.728,12.222,2.655,12.322,2.031.106,1.99-9.664,1.558-12.168A1.785,1.785,0,0,0,1765.519,1421.507Z" transform="translate(-1760.274 -1400.428)" fill="url(#v)"/></g></g></g><g transform="translate(592.817 505.596)"><circle cx="32.967" cy="32.967" r="32.967" transform="translate(0 0)" fill="#fff"/><g transform="translate(13.802 12.236)"><path d="M2480.619,1208.2a4.114,4.114,0,0,1-3.8-1.911l-13.5-21.676a4.625,4.625,0,0,1,1.522-6.214,4.3,4.3,0,0,1,6.1,1.142l9.361,15.046,12.352-25.156a4.626,4.626,0,0,1,5.947-2.314,4.265,4.265,0,0,1,1.933,5.857l-15.962,32.536a4.813,4.813,0,0,1-3.794,2.677C2480.723,1208.192,2480.671,1208.2,2480.619,1208.2Z" transform="translate(-2462.684 -1166.747)" fill="url(#w)"/></g></g><g transform="translate(426.903 605.273)"><g transform="translate(0 38.463)"><path d="M518.279,2641.491v-39.1a9.368,9.368,0,0,0-9.266-9.373c-15.417-.167-47.215-.176-73.232,2.016a7.044,7.044,0,0,0-6.441,6.77l-2.432,37.8a8.951,8.951,0,0,0,8.775,9.273l73.64,1.4A8.788,8.788,0,0,0,518.279,2641.491Z" transform="translate(-426.903 -2592.951)" fill="url(#x)"/><path d="M1166.389,2717.382c.066,3.327-.033,8.606-.114,12.017a3.012,3.012,0,0,1-3.363,2.92l-12.688-1.487a3.013,3.013,0,0,1-2.629-3.439l1.557-10.389a3.013,3.013,0,0,1,2.98-2.566h11.245A3.009,3.009,0,0,1,1166.389,2717.382Z" transform="translate(-1083.943 -2703.712)" fill="#fff"/><path d="M848.632,2627.9l-10.584,1.142a2.386,2.386,0,0,1-2.636-2.547l2.314-31.484c4.437-.141,8.813-.243,13.036-.315v30.833A2.386,2.386,0,0,1,848.632,2627.9Z" transform="translate(-799.343 -2594.543)" fill="#fff" opacity="0.37"/><path d="M914.122,2623.448a1.064,1.064,0,0,1-1.062,1l-.062,0a1.064,1.064,0,0,1-1-1.124l1.6-27.479,2.135-.05Z" transform="translate(-869.171 -2595.545)" fill="#fff"/><g transform="translate(68.433 13.867)"><path d="M1290.7,2763.426a.355.355,0,0,0,.354-.333l.549-8.655a.354.354,0,0,0-.332-.376.347.347,0,0,0-.376.332l-.549,8.655a.355.355,0,0,0,.332.376Z" transform="translate(-1282.554 -2753.706)" fill="url(#y)"/><path d="M1277.9,2761.714a.355.355,0,0,0,.355-.343l.288-8.82a.355.355,0,0,0-.343-.367.336.336,0,0,0-.367.343l-.288,8.82a.356.356,0,0,0,.343.367Z" transform="translate(-1270.884 -2751.993)" fill="url(#z)"/><path d="M1260.725,2761.718a.353.353,0,0,1-.337-.371c.141-2.963.409-8.615.413-8.808a.355.355,0,0,1,.71,0c0,.146-.345,7.387-.414,8.837a.355.355,0,0,1-.354.338Zm.069-9.174h0Z" transform="translate(-1255.241 -2751.999)" fill="url(#aa)"/><path d="M1230.272,2760.118a.709.709,0,0,0,.708-.685c.3-8.546.247-8.739.213-8.866a.71.71,0,0,0-1.388.281c.023.513-.136,5.486-.243,8.535a.709.709,0,0,0,.684.734Z" transform="translate(-1227.137 -2750.042)" fill="url(#ab)"/><path d="M1216.52,2763.431a.354.354,0,0,0,.355-.355v-8.655a.355.355,0,0,0-.709,0v8.655A.355.355,0,0,0,1216.52,2763.431Z" transform="translate(-1214.923 -2753.71)" fill="url(#ac)"/><path d="M1202.449,2763.221a.354.354,0,0,0,.355-.346c.068-3.008.227-7.92.369-8.51a.355.355,0,0,0-.5-.47c-.193.127-.377.247-.574,8.964a.356.356,0,0,0,.347.363Z" transform="translate(-1202.094 -2753.5)" fill="url(#ad)"/><path d="M1308.657,2760.544a.71.71,0,0,0,.708-.673l.473-9.088a.711.711,0,0,0-.672-.746.719.719,0,0,0-.746.672l-.473,9.088a.71.71,0,0,0,.672.746Z" transform="translate(-1298.602 -2750.036)" fill="url(#ae)"/></g></g><g transform="translate(7.83 0)"><path d="M579.768,2191.341v-27.46a6.579,6.579,0,0,0-6.507-6.583c-10.827-.118-33.158-.124-51.429,1.416a4.947,4.947,0,0,0-4.523,4.754l-1.708,26.548a6.286,6.286,0,0,0,6.163,6.512l51.716.983A6.172,6.172,0,0,0,579.768,2191.341Z" transform="translate(-515.597 -2157.252)" fill="url(#af)"/><path d="M1034.92,2244.638c.046,2.337-.023,6.044-.08,8.439a2.115,2.115,0,0,1-2.362,2.051l-8.91-1.045a2.116,2.116,0,0,1-1.846-2.415l1.094-7.3a2.116,2.116,0,0,1,2.092-1.8h7.9A2.113,2.113,0,0,1,1034.92,2244.638Z" transform="translate(-977.019 -2235.039)" fill="#fff"/><path d="M811.767,2181.8l-7.433.8a1.675,1.675,0,0,1-1.851-1.789l1.625-22.111c3.116-.1,6.189-.171,9.155-.221v21.653A1.676,1.676,0,0,1,811.767,2181.8Z" transform="translate(-777.153 -2158.37)" fill="#fff" opacity="0.37"/><path d="M857.759,2178.67a.747.747,0,0,1-.746.7l-.044,0a.747.747,0,0,1-.7-.789l1.121-19.3,1.5-.034Z" transform="translate(-826.191 -2159.074)" fill="#fff"/><g transform="translate(48.059 9.739)"><path d="M1122.22,2276.973a.249.249,0,0,0,.249-.234l.385-6.078a.249.249,0,0,0-.233-.264.244.244,0,0,0-.264.233l-.385,6.078a.249.249,0,0,0,.233.264Z" transform="translate(-1116.5 -2270.147)" fill="url(#ag)"/><path d="M1113.232,2275.771a.249.249,0,0,0,.249-.241l.2-6.195a.249.249,0,0,0-.241-.257.236.236,0,0,0-.257.241l-.2,6.195a.249.249,0,0,0,.241.258Z" transform="translate(-1108.305 -2268.945)" fill="url(#ah)"/><path d="M1101.17,2275.775a.249.249,0,0,1-.237-.261c.1-2.08.287-6.05.29-6.185a.249.249,0,0,1,.5,0c0,.1-.242,5.188-.291,6.206a.249.249,0,0,1-.249.238Zm.048-6.443h0Z" transform="translate(-1097.319 -2268.948)" fill="url(#ai)"/><path d="M1079.784,2274.649a.5.5,0,0,0,.5-.481c.211-6,.174-6.137.15-6.226a.5.5,0,0,0-.975.2c.016.361-.1,3.853-.17,5.995a.5.5,0,0,0,.48.516Z" transform="translate(-1077.582 -2267.573)" fill="url(#aj)"/><path d="M1070.126,2276.976a.249.249,0,0,0,.249-.249v-6.078a.249.249,0,1,0-.5,0v6.078A.249.249,0,0,0,1070.126,2276.976Z" transform="translate(-1069.005 -2270.149)" fill="url(#ak)"/><path d="M1060.244,2276.828a.249.249,0,0,0,.249-.243c.048-2.112.159-5.562.259-5.976a.25.25,0,0,0-.354-.331c-.136.089-.265.173-.4,6.295a.25.25,0,0,0,.243.255Z" transform="translate(-1059.994 -2270.002)" fill="url(#al)"/><path d="M1134.831,2274.949a.5.5,0,0,0,.5-.473l.333-6.382a.5.5,0,1,0-1-.052l-.333,6.383a.5.5,0,0,0,.472.524Z" transform="translate(-1127.77 -2267.569)" fill="url(#am)"/></g></g></g></g></svg>