<svg xmlns="http://www.w3.org/2000/svg" width="35.036" height="41.074" viewBox="0 0 35.036 41.074"><g transform="translate(0 0)"><path d="M30.711,0H23.685a2.144,2.144,0,0,0-2.141,2.141V38.933a2.144,2.144,0,0,0,2.141,2.141h7.026a2.143,2.143,0,0,0,2.14-2.117V2.117A2.143,2.143,0,0,0,30.711,0Z" transform="translate(-21.544 0)" fill="#fff"/><path d="M133.7,15.1H113.545V51.945H133.7a1.99,1.99,0,0,0,1.987-1.987V17.091A1.99,1.99,0,0,0,133.7,15.1Zm-17.21,2.242h13.458v7.5H116.49Zm2.323,28.06h-2.042a1.051,1.051,0,0,1,0-2.1h2.042a1.051,1.051,0,0,1,0,2.1Zm0-4.5h-2.042a1.051,1.051,0,0,1,0-2.1h2.042a1.051,1.051,0,0,1,0,2.1Zm0-4.5h-2.042a1.051,1.051,0,0,1,0-2.1h2.042a1.051,1.051,0,0,1,0,2.1Zm0-4.5h-2.042a1.051,1.051,0,0,1,0-2.1h2.042a1.051,1.051,0,0,1,0,2.1Zm5.708,13.509h-2.042a1.051,1.051,0,0,1,0-2.1h2.042a1.051,1.051,0,0,1,0,2.1Zm0-4.5h-2.042a1.051,1.051,0,0,1,0-2.1h2.042a1.051,1.051,0,0,1,0,2.1Zm0-4.5h-2.042a1.051,1.051,0,0,1,0-2.1h2.042a1.051,1.051,0,0,1,0,2.1Zm0-4.5h-2.042a1.051,1.051,0,0,1,0-2.1h2.042a1.051,1.051,0,0,1,0,2.1Zm5.708,13.509h-2.042a1.051,1.051,0,0,1,0-2.1h2.042a1.051,1.051,0,0,1,0,2.1Zm0-4.5h-2.042a1.051,1.051,0,0,1,0-2.1h2.042a1.051,1.051,0,0,1,0,2.1Zm0-4.5h-2.042a1.051,1.051,0,0,1,0-2.1h2.042a1.051,1.051,0,0,1,0,2.1Zm0-4.5h-2.042a1.051,1.051,0,0,1,0-2.1h2.042a1.051,1.051,0,0,1,0,2.1Z" transform="translate(-100.652 -12.987)" fill="#fff"/></g></svg>