<svg xmlns="http://www.w3.org/2000/svg" xmlns:xlink="http://www.w3.org/1999/xlink" width="538" height="585" viewBox="0 0 538 585"><defs><filter id="a" x="-22.5" y="-19.5" width="583" height="630" filterUnits="userSpaceOnUse"><feOffset dy="3" input="SourceAlpha"/><feGaussianBlur stdDeviation="7.5" result="b"/><feFlood flood-opacity="0.102"/><feComposite operator="in" in2="b"/><feComposite in="SourceGraphic"/></filter><clipPath id="c"><g transform="matrix(1, 0, 0, 1, 0, 0)" filter="url(#a)"><rect width="538" height="585" rx="11" transform="translate(97 814)" fill="#fff"/></g></clipPath><linearGradient id="d" y1="0.5" x2="1" y2="0.5" gradientUnits="objectBoundingBox"><stop offset="0" stop-color="#919dff"/><stop offset="1" stop-color="#ffe5f5"/></linearGradient><linearGradient id="e" x1="0.179" y1="-0.076" x2="0.72" y2="0.824" xlink:href="#d"/><linearGradient id="f" x1="-0.921" y1="-0.124" x2="0.631" y2="0.848" xlink:href="#d"/><linearGradient id="h" x1="0.193" y1="-0.087" x2="0.544" y2="0.838" xlink:href="#d"/><linearGradient id="j" x1="-0.078" y1="1.002" x2="2.694" y2="-0.867" xlink:href="#d"/><linearGradient id="k" x1="0.862" y1="-0.212" x2="0.348" y2="0.986" xlink:href="#d"/></defs><g transform="translate(-97 -814)" clip-path="url(#c)"><g transform="translate(3787 2672.946)"><path d="M60.787,119.187s143.96-34.421,254.125,58.755C467.253,306.791,366.136,495.575,542.6,480.226c186.63-16.234,222.625,190.112,222.625,190.112H60.787Z" transform="translate(-3929.224 -1950.28)" fill="url(#d)"/><g transform="translate(-3653.843 -1608.341)"><path d="M141.348,479.1s-29.441-237.371,17.618-251.22c50.4-14.833,9.22,251.22,9.22,251.22Z" transform="translate(-132.253 -227.283)" fill="url(#e)" style="mix-blend-mode:multiply;isolation:isolate"/><path d="M153.894,250.583s-6.054,75.459,2.711,159.962" transform="translate(-126.029 -219.885)" fill="none" stroke="#fff" stroke-linecap="round" stroke-miterlimit="10" stroke-width="1"/></g><g transform="translate(-3748 -1478.298)"><path d="M125.976,461.718c-.141,0-7.034-144.508-65.189-182.894V461.718Z" transform="translate(-60.787 -278.824)" fill="url(#f)" style="mix-blend-mode:multiply;isolation:isolate"/><path d="M67.372,329.78s18.887,43.571,26.257,115.759" transform="translate(-58.696 -262.645)" fill="none" stroke="#fff" stroke-linecap="round" stroke-miterlimit="10" stroke-width="1"/></g><path d="M259.608,434.667s13.422-76.379,38.091-70.3c28.018,6.9-21.753,70.3-21.753,70.3Z" transform="translate(-3745.659 -1792.209)" fill="url(#d)" style="mix-blend-mode:multiply;isolation:isolate"/><path d="M156.189,454s-7-108.107-37.453-150.867c0,0-31.105,60.064,8.22,150.263Z" transform="translate(-3794.095 -1811.541)" fill="url(#h)" style="mix-blend-mode:multiply;isolation:isolate"/><path d="M289.4,267.653h0a4.123,4.123,0,0,1-.677-5.792l3.52-4.451c1.412-1.787,3.274-2.821,5.059-1.408,0,0,3.321,3.281,5.523,2.269,2.5-1.153,7.35-6.523,9.752-10.4,1.69-2.731-3.7-6.892-3.7-6.892-1.785-1.412-1.184-3.1.228-4.885l3.52-4.452a4.123,4.123,0,0,1,5.792-.676h0C332.373,242.027,308.006,277.448,289.4,267.653Z" transform="translate(-3736.697 -1834.739)" fill="#cfdbff"/><rect width="114.313" height="21.103" transform="translate(-3266.558 -1316.506)" fill="#8885f7"/><rect width="89.014" height="12.338" transform="translate(-3253.909 -1328.845)" fill="#b4b3fc"/><g transform="translate(-3407.762 -1482.432)"><path d="M486.405,409.18H322.4a3.363,3.363,0,0,1-3.246-4.246l33.015-121.481a10.529,10.529,0,0,1,10.159-7.767H526.334a3.364,3.364,0,0,1,3.246,4.248l-33.016,121.48A10.528,10.528,0,0,1,486.405,409.18Z" transform="translate(-319.03 -275.686)" fill="#8385fc"/><path d="M490.415,409.18H326.406a3.363,3.363,0,0,1-3.246-4.246l33.015-121.481a10.529,10.529,0,0,1,10.159-7.767H530.344a3.364,3.364,0,0,1,3.246,4.248l-33.015,121.48A10.528,10.528,0,0,1,490.415,409.18Z" transform="translate(-317.757 -275.686)" fill="url(#d)"/><path d="M406.593,329.1l-24.358,98.529a15.711,15.711,0,0,1-15.251,11.941h-20.02a3.531,3.531,0,0,0-3.532,3.531h0a3.532,3.532,0,0,0,3.532,3.532h52.694a13.813,13.813,0,0,0,13.433-10.591l25.238-105.23a3.618,3.618,0,0,0-3.518-4.46H410.1A3.618,3.618,0,0,0,406.593,329.1Z" transform="translate(-311.282 -259.6)" fill="url(#j)"/></g><path d="M632.755,426.338H60.787v-8.7H632.755a4.157,4.157,0,0,1,3.932,4.348h0A4.157,4.157,0,0,1,632.755,426.338Z" transform="translate(-3808.787 -1711.183)" fill="#0e225c"/><path d="M97.822,242.33a21.924,21.924,0,0,0-6.437,39.4l-.058,9.879,6.9-6.821a21.945,21.945,0,1,0-.4-42.462Zm-1.2,25.074a1.961,1.961,0,1,1,1.374-2.4A1.961,1.961,0,0,1,96.624,267.4Zm7.457-2.025a1.96,1.96,0,1,1,1.373-2.4A1.954,1.954,0,0,1,104.081,265.379Zm7.456-2.025a1.96,1.96,0,1,1,1.374-2.4A1.951,1.951,0,0,1,111.537,263.354Z" transform="translate(-3802.171 -1831.092)" fill="#fff"/><g transform="translate(-3463.029 -1711.057)"><path d="M279.312,164.122l.643-2.784a12.621,12.621,0,0,1,15.136-9.462h0a12.623,12.623,0,0,1,9.462,15.136l.024-.107c-1.406,6.449-4.53,9.962-9.171,12.864l-2.414,1.509a13.428,13.428,0,0,0-5.966,8.367l-1.151,4.991" transform="translate(-276.374 -148.613)" fill="#fff"/><g transform="translate(0 0)"><path d="M285.923,198.206a2.939,2.939,0,0,1-2.2-3.523l1.151-4.991a16.262,16.262,0,0,1,7.271-10.2l2.414-1.509c3.78-2.362,6.561-5.128,7.842-10.926h0a9.684,9.684,0,0,0-18.873-4.353l-.642,2.784a2.938,2.938,0,1,1-5.726-1.32l.643-2.784a15.559,15.559,0,0,1,30.354,6.852h0c-1.447,6.634-4.582,11.038-10.485,14.73l-2.414,1.509a10.419,10.419,0,0,0-4.66,6.536L289.446,196A2.938,2.938,0,0,1,285.923,198.206Z" transform="translate(-277.082 -149.321)" fill="#cfdbff"/><path d="M286.646,193.083a3.224,3.224,0,1,1-2.418-3.866A3.225,3.225,0,0,1,286.646,193.083Z" transform="translate(-276.066 -136.68)" fill="#cfdbff"/></g></g><g transform="translate(-3623.266 -1694.08)"><path d="M173.473,169.678l.022.075a12.429,12.429,0,0,1-1.144,10.435l-.91,1.672a8.977,8.977,0,0,0-.721,6.827l.968,3.288-3.034-3.416a10.8,10.8,0,0,1,1.067-7.636l.909-1.672a10.474,10.474,0,0,0,.98-8.942,6.478,6.478,0,0,0-12.428,3.663l.539,1.829a1.945,1.945,0,0,1-.581,2.025l-1.3-1.47-.539-1.827a8.443,8.443,0,0,1,16.175-4.85Z" transform="translate(-154.988 -161.736)" fill="#fff"/><g transform="translate(0 0)"><path d="M175.824,169.575l.067.227a14.3,14.3,0,0,1-1.337,11.792l-.91,1.672a6.974,6.974,0,0,0-.567,5.339l.97,3.289A1.965,1.965,0,1,1,170.278,193l-.97-3.288c-.066-.227-.124-.455-.18-.684a10.8,10.8,0,0,1,1.067-7.636l.909-1.672a10.474,10.474,0,0,0,.98-8.942,6.478,6.478,0,0,0-12.428,3.663l.539,1.829a1.965,1.965,0,0,1-3.769,1.111l-.539-1.827a10.408,10.408,0,0,1,19.938-5.98Z" transform="translate(-155.461 -162.207)" fill="#fff"/><path d="M172.217,189.855a2.156,2.156,0,1,1-2.678-1.458A2.156,2.156,0,0,1,172.217,189.855Z" transform="translate(-151.482 -153.92)" fill="#fff"/></g></g><g transform="translate(-3698.482 -1667.364)"><path d="M124.981,211.515l-26.61-7.228,4.734-17.426,10.938,12.327,15.672-5.1Z" transform="translate(-98.371 -181.095)" fill="#fff"/><path d="M116.266,185.173l-9.9-2.688-1.818,6.692,8.131,9.188,11.662-3.811,1.818-6.692Z" transform="translate(-96.409 -182.484)" fill="#fff"/><rect width="15.598" height="0.567" transform="translate(11.511 3.46) rotate(15.197)" fill="#a6abfd"/><rect width="15.598" height="0.567" transform="translate(10.755 6.241) rotate(15.197)" fill="#a6abfd"/></g><path d="M99.959,149.748a3.478,3.478,0,1,1-3.478-3.478A3.478,3.478,0,0,1,99.959,149.748Z" transform="translate(-3798.558 -1861.347)" fill="none" stroke="#fff" stroke-linecap="round" stroke-miterlimit="10" stroke-width="1"/><path d="M210.521,187.707a3.479,3.479,0,1,1-3.478-3.477A3.479,3.479,0,0,1,210.521,187.707Z" transform="translate(-3763.454 -1849.294)" fill="none" stroke="#fff" stroke-linecap="round" stroke-miterlimit="10" stroke-width="1"/><path d="M278.758,222a3.478,3.478,0,1,1-3.478-3.477A3.477,3.477,0,0,1,278.758,222Z" transform="translate(-3741.787 -1838.404)" fill="none" stroke="#b0b1fb" stroke-linecap="round" stroke-miterlimit="10" stroke-width="1"/><g transform="translate(-3527.972 -1458.849)"><path d="M227.807,457.031s-2.3-118.217,45.148-163.445c0,0,22.1,55.74-11.349,163.445Z" transform="translate(-227.789 -293.586)" fill="url(#k)" style="mix-blend-mode:multiply;isolation:isolate"/><path d="M256.943,320.685s3.47,47.362-13.364,117.945" transform="translate(-222.776 -284.982)" fill="none" stroke="#fff" stroke-linecap="round" stroke-miterlimit="10" stroke-width="1"/></g><g transform="translate(-3700.952 -1577.728)"><path d="M213.745,275.848l-.911,11.883-.309,3.893-.955,12.53-26.249.47,2.982-25.955,1.542-13.382.749-6.463Z" transform="translate(-68.293 -185.744)" fill="#fa8fa4"/><path d="M211.839,286.173l-.31,3.893c-15.444,0-22.51-21.23-23.071-22.943l.391-3.394A46.644,46.644,0,0,0,211.839,286.173Z" transform="translate(-67.297 -184.187)" fill="#fa8098"/><path d="M315.074,312.3s12.255-13.622,22.092-14.649c3.63-.379-2.528,7.3-2.528,7.3h41.38s-1.539,5.079-4.617,7.354-36.764,12.228-36.764,12.228Z" transform="translate(-27.096 -173.421)" fill="#fa8fa4"/><path d="M229.743,237.955c3.568,2.721,9.515,5.818,10.366,10.224.76,3.937-7.194,17.034-3.428,22.088,7,9.394-7.4,22.644-12.51,26.167-12.277,8.464-43.783-16.461-33.12-48.762C199.154,223.129,219.386,230.054,229.743,237.955Z" transform="translate(-67.162 -194.698)" fill="#fa8fa4"/><path d="M191.72,236.741s33.058,22.889,49.364,13.147.829-28.955.829-28.955-3.619,6.739-15.5,2.829S192.583,217.4,191.72,236.741Z" transform="translate(-66.262 -197.774)" fill="#0a0a0f"/><path d="M208.169,232.721s-7.8-11.213-18.254-4.643c-7.963,5-6.236,32.786.946,43.358C190.861,271.436,191.04,238.794,208.169,232.721Z" transform="translate(-68.502 -196.161)" fill="#0a0a0f"/><path d="M212.082,238.1s-6.531,15.757-14,19.7c0,0,.669,8.532-7.028,8.557,0,0,2.331-2.681-.161-8.655a19.747,19.747,0,0,1-1.22-4.053c-1.5-8.163,5.618-23.279,13.593-22.406S212.082,238.1,212.082,238.1Z" transform="translate(-66.976 -194.514)" fill="#0a0a0f"/><path d="M192.891,264.528s-5.632.626-7.918-4c-4.08-8.253,4.871-13.216,7.68-8.826Z" transform="translate(-68.737 -188.523)" fill="#fa8fa4"/><path d="M207.159,264.319s2.91,13.835,10.5,11.013c5.087-1.892,8.279-9.464,8.279-9.464Z" transform="translate(-61.36 -183.999)" fill="#fff"/><path d="M210.266,254.054c-.111,1.428-.665,2.549-1.238,2.506s-.949-1.238-.838-2.667.665-2.551,1.237-2.506S210.375,252.626,210.266,254.054Z" transform="translate(-61.039 -188.106)" fill="#2e112e"/><path d="M223.2,255.2c-.111,1.428-.664,2.551-1.238,2.506s-.947-1.237-.838-2.665.665-2.551,1.238-2.506S223.314,253.775,223.2,255.2Z" transform="translate(-56.931 -187.74)" fill="#2e112e"/><path d="M148.209,458.121s-36.823-117.543,1.2-143.663,63.14-31.077,102.046-15.406,18.593,159.068,18.593,159.068Z" transform="translate(-85.162 -175.797)" fill="#173796"/><path d="M221.862,351.971l60.665,55.049a34.269,34.269,0,0,0,52.972-8.714l39.733-71.4-19.564-12.228s-39.129,45.853-45.853,42.185-35.54-66.877-110.891-66.709C162.793,290.232,221.862,351.971,221.862,351.971Z" transform="translate(-67.69 -175.797)" fill="#173796"/><path d="M160.742,308.6S122.6,338.288,99.456,396.255c-10.71,26.826,8.956,56.009,37.84,56.009h84.966l-1.613-26.357-59.312-30.262S223.373,341.63,160.742,308.6Z" transform="translate(-96.496 -169.939)" fill="#173796"/><path d="M196.549,259.679s3.528-31.163,23.72-37.188a11.351,11.351,0,0,0-12.678-.953s-15.962,8.6-18.707,38.756Z" transform="translate(-67.162 -198.071)" fill="#6970fb"/><g transform="translate(126.486 71.379)"><path d="M213.981,283.728a42.188,42.188,0,0,1-14.07-9.072c-7.2-7.024-7.393-16.58-7.411-17l2.935-.126c0,.09.486,9.137,6.834,15.325a35.557,35.557,0,0,0,13.561,8.387l-.793,2.829C214.973,284.057,214.6,283.949,213.981,283.728Z" transform="translate(-192.5 -257.533)" fill="#0a0a0f"/><path d="M208.023,275.122a3.3,3.3,0,0,0,1.984,3.858,2.776,2.776,0,0,0,1.874-5.227C210.438,273.235,208.541,273.679,208.023,275.122Z" transform="translate(-187.613 -252.449)" fill="#0a0a0f"/></g><ellipse cx="13.021" cy="14.529" rx="13.021" ry="14.529" transform="translate(109.386 52.855)" fill="#173796"/><ellipse cx="11.594" cy="12.936" rx="11.594" ry="12.936" transform="translate(106.619 54.448)" fill="#8885f7"/><path d="M179.521,295.02l9.515-13.8,16.527,11.763,8.808-8.474,8.358,10.227-9.166,10.674-8-8.978-7.2,10.452S186.607,303.078,179.521,295.02Z" transform="translate(-70.135 -178.632)" fill="#fff"/><path d="M166.419,350.989l-20.128,31.763a8.54,8.54,0,0,0,4.294,12.6l58.746,21.373" transform="translate(-81.108 -156.481)" fill="#173796" stroke="#0a0a0f" stroke-miterlimit="10" stroke-width="1"/><path d="M191.954,421.914l2.457-17.726s30.251,8.732,32.192,10.35,7.439,7.375,7.439,7.375Z" transform="translate(-66.187 -139.589)" fill="#fa8fa4"/><line x1="1.538" y2="9.998" transform="translate(63.065 0)" fill="none" stroke="#fff" stroke-linecap="round" stroke-miterlimit="10" stroke-width="1"/></g><line x1="9.988" y1="1.601" transform="translate(-3642.077 -1635.667)" fill="none" stroke="#fff" stroke-linecap="round" stroke-miterlimit="10" stroke-width="1"/><line x1="1.538" y2="9.998" transform="translate(-3384.673 -1586.277)" fill="none" stroke="#b0b1fb" stroke-linecap="round" stroke-miterlimit="10" stroke-width="1"/><line x1="9.988" y1="1.601" transform="translate(-3388.863 -1582.078)" fill="none" stroke="#b0b1fb" stroke-linecap="round" stroke-miterlimit="10" stroke-width="1"/><rect width="8.047" height="8.047" transform="translate(-3726.761 -1621.335)" fill="none" stroke="#fff" stroke-linecap="round" stroke-miterlimit="10" stroke-width="1"/><rect width="8.047" height="8.047" transform="matrix(0.757, 0.654, -0.654, 0.757, -3512.899, -1716.732)" fill="none" stroke="#9da5fe" stroke-linecap="round" stroke-miterlimit="10" stroke-width="1"/><path d="M320.348,378.669h-35.6a3.977,3.977,0,0,0-3.978,3.976V405.93a25.854,25.854,0,0,0,4.545,14.642l4.353,6.339a7.162,7.162,0,0,0,5.9,3.107h13.917a7.158,7.158,0,0,0,5.934-3.154l5.116-7.577a22.137,22.137,0,0,0,3.788-12.381V382.645A3.977,3.977,0,0,0,320.348,378.669Z" transform="translate(-3738.94 -1714.862)" fill="#fff"/><path d="M301.564,410.17H281.73a12.156,12.156,0,0,1,0-24.312h19.834ZM281.73,391.219a6.8,6.8,0,0,0,0,13.59H296.2v-13.59Z" transform="translate(-3742.494 -1785.275)" fill="#fff"/><path d="M299.519,376.061s-7.325-5.835-4.539-14.974,8.747-15.166,4.539-21.639c0,0,10.578,1.563,6.756,12.278S296.27,369.126,299.519,376.061Z" transform="translate(-3734.629 -1800.01)" fill="url(#d)"/><path d="M295.3,353.343s-7.173,10.448,0,18.307c8.5,9.31,4.742,13.584,4.742,13.584s-2.624-4.138-9.63-8.721C284.281,372.5,279.676,359.384,295.3,353.343Z" transform="translate(-3737.693 -1795.599)" fill="url(#d)"/></g></g></svg>