<svg xmlns="http://www.w3.org/2000/svg" width="10.303" height="11.774" viewBox="0 0 10.303 11.774"><path d="M224.74,160a.737.737,0,0,0-.736.736v.736h1.472v-.736A.737.737,0,0,0,224.74,160Z" transform="translate(-219.588 -156.317)" fill="#fff"/><path d="M41.877.073a.736.736,0,0,0-.779.09,3.029,3.029,0,0,1-3.493,0,.736.736,0,0,0-.923,0,3.029,3.029,0,0,1-3.493,0,.736.736,0,0,0-1.2.573V6.624c0,2.306,1.849,4.221,4.946,5.122a.74.74,0,0,0,.411,0c3.1-.9,4.946-2.815,4.946-5.122V.736A.736.736,0,0,0,41.877.073ZM39.351,7.359a.736.736,0,0,1-.736.736H35.672a.736.736,0,0,1-.736-.736V5.887a.736.736,0,0,1,.736-.736V4.416a1.472,1.472,0,0,1,2.944,0v.736a.736.736,0,0,1,.736.736Z" transform="translate(-31.992 0)" fill="#fff"/><path d="M240.372,272a.368.368,0,1,0,.368.368A.368.368,0,0,0,240.372,272Z" transform="translate(-235.22 -265.741)" fill="#fff"/></svg>