<svg xmlns="http://www.w3.org/2000/svg" width="11.674" height="12.157" viewBox="0 0 11.674 12.157"><path d="M23.537,19.648a4.419,4.419,0,0,0,.057-.57,4.621,4.621,0,0,0-.057-.57l1.1-.829a.608.608,0,0,0,.159-.789l-.983-1.7a.608.608,0,0,0-.762-.257l-1.261.531a4.517,4.517,0,0,0-1-.592l-.168-1.338a.609.609,0,0,0-.6-.532H18.053a.608.608,0,0,0-.6.532l-.168,1.338a4.536,4.536,0,0,0-1,.592l-1.261-.531a.607.607,0,0,0-.762.257l-.983,1.7a.609.609,0,0,0,.159.789l1.1.829a4.418,4.418,0,0,0-.057.57,4.621,4.621,0,0,0,.057.57l-1.1.829a.608.608,0,0,0-.159.789l.983,1.7a.608.608,0,0,0,.762.257l1.261-.532a4.516,4.516,0,0,0,1,.592l.168,1.338a.607.607,0,0,0,.6.532h1.966a.608.608,0,0,0,.6-.532l.168-1.338a4.536,4.536,0,0,0,1-.592l1.261.531a.607.607,0,0,0,.762-.257l.983-1.7a.609.609,0,0,0-.159-.789Zm-4.5,1.861a2.431,2.431,0,1,1,2.431-2.431A2.431,2.431,0,0,1,19.035,21.51Z" transform="translate(-13.199 -13)" fill="#fff"/></svg>