<svg xmlns="http://www.w3.org/2000/svg" width="11.015" height="11.015" viewBox="0 0 11.015 11.015"><path d="M4.245,0H.8A.8.8,0,0,0,0,.8V2.868a.8.8,0,0,0,.8.8H4.245a.8.8,0,0,0,.8-.8V.8A.8.8,0,0,0,4.245,0Zm0,0" fill="#fff"/><path d="M4.245,213.332H.8a.8.8,0,0,0-.8.8v4.819a.8.8,0,0,0,.8.8H4.245a.8.8,0,0,0,.8-.8v-4.819A.8.8,0,0,0,4.245,213.332Zm0,0" transform="translate(0 -208.743)" fill="#fff"/><path d="M281.577,341.332h-3.442a.8.8,0,0,0-.8.8V344.2a.8.8,0,0,0,.8.8h3.442a.8.8,0,0,0,.8-.8v-2.065A.8.8,0,0,0,281.577,341.332Zm0,0" transform="translate(-271.366 -333.989)" fill="#fff"/><path d="M281.577,0h-3.442a.8.8,0,0,0-.8.8V5.622a.8.8,0,0,0,.8.8h3.442a.8.8,0,0,0,.8-.8V.8A.8.8,0,0,0,281.577,0Zm0,0" transform="translate(-271.366)" fill="#fff"/></svg>