<svg xmlns="http://www.w3.org/2000/svg" width="13.612" height="11.059" viewBox="0 0 13.612 11.059"><g transform="translate(0 0)"><path d="M13.535,51.159l-2.127-2.978A.443.443,0,0,0,11.06,48H2.553a.443.443,0,0,0-.349.179L.077,51.159,0,51.389a1.7,1.7,0,0,0,1.7,1.718,1.687,1.687,0,0,0,1.276-.578,1.7,1.7,0,0,0,2.552,0,1.7,1.7,0,0,0,2.552,0,1.7,1.7,0,0,0,2.552,0,1.687,1.687,0,0,0,1.276.578,1.7,1.7,0,0,0,1.7-1.718Z" transform="translate(0 -48.003)" fill="#fff"/></g><g transform="translate(0.851 5.611)"><path d="M43.062,259.419a2.545,2.545,0,0,1-1.276-.344,2.607,2.607,0,0,1-2.552,0,2.607,2.607,0,0,1-2.552,0,2.607,2.607,0,0,1-2.552,0,2.587,2.587,0,0,1-2.127.178v4.419a.851.851,0,0,0,.851.851h6.806v-4.254h2.552v4.254h.851a.851.851,0,0,0,.851-.851v-4.409A2.537,2.537,0,0,1,43.062,259.419Zm-5.955,3.4H33.7v-2.552h3.4Z" transform="translate(-32.003 -259.075)" fill="#fff"/></g></svg>