<svg xmlns="http://www.w3.org/2000/svg" width="11.606" height="9.842" viewBox="0 0 11.606 9.842"><path d="M440.995,348.7a1.2,1.2,0,0,1-.247.536.845.845,0,0,1-.588.327c-.546.018-1.093.006-1.613.006.006-.335.017-.677.018-1.018,0-.838,0-1.676,0-2.515a2.753,2.753,0,0,0-.124-.915.366.366,0,0,1-.007-.069,4.823,4.823,0,0,1,1.431.1,1.637,1.637,0,0,1,1.11,1.342.288.288,0,0,0,.02.052Z" transform="translate(-429.388 -339.745)" fill="#fff"/><path d="M231.391,319.922H229.1c-.287,0-.407-.119-.407-.4,0-1.1,0-2.2,0-3.3A1.659,1.659,0,0,1,230,314.565a1.6,1.6,0,0,1,.358-.041c.687,0,1.375-.007,2.062,0a1.656,1.656,0,0,1,1.629,1.313,1.835,1.835,0,0,1,.04.4q0,1.643,0,3.285c0,.271-.123.4-.392.4Z" transform="translate(-225.591 -310.081)" fill="#fff"/><path d="M254.9,157.836a2.014,2.014,0,1,1-2.015,2A2.019,2.019,0,0,1,254.9,157.836Z" transform="translate(-249.092 -157.836)" fill="#fff"/><path d="M121.756,345.171a4.359,4.359,0,0,0-.145,1.567c-.005.68,0,1.36,0,2.04,0,.3.013.609.02.923h-.313c-.359,0-.718,0-1.076,0a1.009,1.009,0,0,1-1.06-1.06q0-.867,0-1.734a1.674,1.674,0,0,1,1.67-1.734C121.145,345.162,121.439,345.171,121.756,345.171Z" transform="translate(-119.18 -339.859)" fill="#fff"/><path d="M145.965,225.644a1.505,1.505,0,1,1,1.508,1.506A1.507,1.507,0,0,1,145.965,225.644Z" transform="translate(-145.206 -222.26)" fill="#fff"/><path d="M398.78,225.638a1.505,1.505,0,1,1-1.511-1.5A1.512,1.512,0,0,1,398.78,225.638Z" transform="translate(-387.932 -222.26)" fill="#fff"/></svg>