<svg xmlns="http://www.w3.org/2000/svg" width="52.109" height="58" viewBox="0 0 52.109 58"><g transform="translate(-26)"><g transform="translate(63.383 44.859)"><g transform="translate(0)"><path d="M357.133,396a1.133,1.133,0,1,0,1.133,1.133A1.133,1.133,0,0,0,357.133,396Z" transform="translate(-356 -396)" fill="#8f8ce9"/></g></g><g transform="translate(26)"><g transform="translate(0)"><path d="M67.3,41.2,61.921,39.4l-1.933-3.866a12.407,12.407,0,0,0,3.358-6.564l.241-1.445h2.062a3.4,3.4,0,0,0,3.4-3.4V16.992a16.992,16.992,0,0,0-33.984,0v7.137a3.4,3.4,0,0,0,2.266,3.2V28.66a3.4,3.4,0,0,0,3.4,3.4h.995A12.289,12.289,0,0,0,43.622,35c.16.184.328.363.5.537L42.189,39.4,36.8,41.2C30.544,43.284,26,49.874,26,56.867A1.133,1.133,0,0,0,27.133,58H76.977a1.133,1.133,0,0,0,1.133-1.133C78.109,49.874,73.566,43.284,67.3,41.2Zm-.524-17.067a1.134,1.134,0,0,1-1.133,1.133H63.92c.288-2.231.48-4.6.557-6.942,0-.066,0-.13.006-.195h2.3Zm-28.32,1.133a1.134,1.134,0,0,1-1.133-1.133v-6h2.3q.006.177.012.356s0,.008,0,.012h0c.079,2.274.269,4.586.55,6.767H38.461Zm2.266,4.531a1.134,1.134,0,0,1-1.133-1.133V27.527h.929l.241,1.445c.046.275.1.548.168.82ZM39.6,15.859H37.371a14.727,14.727,0,0,1,29.367,0H64.514A11.473,11.473,0,0,0,53.069,4.531H51.041A11.474,11.474,0,0,0,39.6,15.859ZM51.041,6.8h2.028a9.211,9.211,0,0,1,9.181,9.222c0,.356,0,.667-.009.949,0,0,0,.007,0,.011l-1.417-.2A18.2,18.2,0,0,1,50.59,11.66a1.133,1.133,0,0,0-.8-.332,10.249,10.249,0,0,0-7.88,3.728A9.208,9.208,0,0,1,51.041,6.8Zm-7.761,23A64.751,64.751,0,0,1,41.921,18.8l1.525-2.033a7.974,7.974,0,0,1,5.9-3.159A20.49,20.49,0,0,0,60.5,19.02l1.668.238c-.111,2.366-.339,4.74-.666,6.924v0c-.1.7-.186,1.154-.394,2.416a9.622,9.622,0,0,1-6.829,7.739,8.913,8.913,0,0,1-10.006-4.28h2.309a3.4,3.4,0,0,0,3.2,2.266h2.266a3.4,3.4,0,0,0,0-6.8H49.789a3.4,3.4,0,0,0-3.206,2.266Zm6.414,8.838a11.362,11.362,0,0,0,4.213.095l-2,2.117Zm.654,3.859-3.593,3.8a43.162,43.162,0,0,1-2.536-5.881l1.349-2.7Zm8-5.164,1.541,3.082a43.149,43.149,0,0,1-2.537,5.883l-3.846-3.846Zm-9.693-6.4a1.133,1.133,0,0,1,1.133-1.133h2.266a1.133,1.133,0,1,1,0,2.266H49.789A1.134,1.134,0,0,1,48.656,30.926ZM28.311,55.734c.449-5.612,4.184-10.713,9.21-12.389l4.768-1.589a45.411,45.411,0,0,0,3.224,6.994l.006.011h0a45.423,45.423,0,0,0,3.1,4.735l1.394,2.237Zm23.744-1.01-1.536-2.466q-.026-.041-.055-.081a43.192,43.192,0,0,1-2.552-3.813l4.04-4.272,4.257,4.257a43.145,43.145,0,0,1-2.561,3.828C53.591,52.251,53.67,52.135,52.055,54.725Zm2.04,1.01L55.488,53.5a45.405,45.405,0,0,0,3.122-4.773l.017-.03,0,0a45.373,45.373,0,0,0,3.19-6.934l4.768,1.589c5.026,1.676,8.761,6.777,9.21,12.389h-21.7Z" transform="translate(-26)" fill="#0e2978"/></g></g><g transform="translate(67.363 47.022)"><g transform="translate(0)"><path d="M396.17,419.217a11.325,11.325,0,0,0-3.207-3.893,1.133,1.133,0,1,0-1.381,1.8,9.047,9.047,0,0,1,2.561,3.11,1.133,1.133,0,0,0,2.027-1.013Z" transform="translate(-391.139 -415.088)" fill="#8f8ce9"/></g></g></g></svg>