<svg xmlns="http://www.w3.org/2000/svg" width="58.277" height="58.917" viewBox="0 0 58.277 58.917"><g transform="translate(-78.215 59.945)"><g transform="translate(78.215 -59.945)"><path d="M79.508,290.682a2.164,2.164,0,0,1-1.29-2.3c.058-1.853.013-3.708.017-5.563a1.768,1.768,0,0,1,1.931-1.976c.934-.031,1.87.056,2.8-.047q5.724,0,11.448,0,6.471,0,12.943-.012a.531.531,0,0,1,0,.106v9.794Z" transform="translate(-78.215 -231.766)" fill="#0051bf"/><path d="M280.8,290.73q0-4.9,0-9.794c.249,0,.5-.012.746-.012h21.08a19.168,19.168,0,0,0,2.578-.085l.12.037a21.5,21.5,0,0,0,3.109.051,1.615,1.615,0,0,1,1.48,1.609c.021,2.179.012,4.358.006,6.538a1.831,1.831,0,0,1-1.27,1.657Z" transform="translate(-251.656 -231.813)" fill="#00347b"/><path d="M303.582,38.474a7.117,7.117,0,0,0,2.226.106,4.2,4.2,0,0,1,2.97.808,3.032,3.032,0,0,1,1.133,2.294c.018,1.208.033,2.416,0,3.624A3.209,3.209,0,0,1,306.7,48.47c-1.5.024-2.991.015-4.487.02l-4.852,0-4.726,0-7-.008-4.842-.038q0-4.907,0-9.815c.229-.013.457-.038.686-.038q10.726,0,21.451-.007C303.151,38.585,303.4,38.689,303.582,38.474Z" transform="translate(-251.653 -24.316)" fill="#046efe"/><path d="M107.466,38.79q0,4.907,0,9.815l0,.05-4.838-.017-7.123,0-4.846,0-4.727.007c-1.3-.006-2.607-.015-3.91-.018-2.386,0-3.681-1.306-3.682-3.707,0-.863,0-1.725,0-2.588a3.311,3.311,0,0,1,3.538-3.57,13.35,13.35,0,0,0,2.806-.1c.2.168.442.085.663.086q7.124.008,14.248,0,3.935,0,7.87-.016Z" transform="translate(-78.321 -24.475)" fill="#2782fe"/><path d="M303.59-45.787c-.184.215-.431.111-.646.112q-10.726.009-21.451.007c-.229,0-.457.024-.686.038v-.057q0-7.124.005-14.247a1.577,1.577,0,0,1,1.074.327q10.671,6.742,21.337,13.492C303.358-46.028,303.552-45.991,303.59-45.787Z" transform="translate(-251.661 59.945)" fill="#6aa9fe"/><path d="M145.233-59.88q0,7.124-.005,14.247-3.935.008-7.87.016-7.124,0-14.248,0c-.221,0-.46.083-.663-.086a5.056,5.056,0,0,1,1.473-1.044q7.073-4.5,14.168-8.956,3.009-1.9,6.02-3.8A1.931,1.931,0,0,1,145.233-59.88Z" transform="translate(-116.084 59.891)" fill="#8cbbfe"/><path d="M305.208,243.072a19.168,19.168,0,0,1-2.579.085h-21.08c-.249,0-.5.008-.746.012a.538.538,0,0,0,0-.106v-6.28l4.835-.05,7.009-.008,4.725.007,4.845-.005,1.09.018a1.787,1.787,0,0,1,1.891,1.908C305.206,240.126,305.205,241.6,305.208,243.072Z" transform="translate(-251.659 -194.047)" fill="#046efe"/><path d="M135.618,236.8v6.279q-6.471.006-12.943.012-5.724,0-11.448,0c0-1.45-.009-2.9,0-4.35a1.8,1.8,0,0,1,1.955-1.964c.3-.006.609-.017.914-.026l4.724.006,4.833,0,7.144.01,4.825-.018Z" transform="translate(-106.474 -194.059)" fill="#2782fe"/><path d="M400.821,126.586l-4.845.005q0-9.257,0-18.514l4.852,0Z" transform="translate(-350.261 -83.906)" fill="#6aa9fe"/><path d="M135.856,126.56l-4.724-.006q0-9.257-.008-18.515l4.727-.007Q135.854,117.3,135.856,126.56Z" transform="translate(-123.513 -83.868)" fill="#8bbbfe"/><path d="M454.391,280.895a21.5,21.5,0,0,1-3.109-.051A18.029,18.029,0,0,1,454.391,280.895Z" transform="translate(-397.613 -231.782)" fill="#0051bf"/><path d="M285.638,107.825c-.007,1.629-.02,3.259-.019,4.888q0,6.816.014,13.631l-4.836.05v-.056q0-9.251,0-18.5l0-.05Z" transform="translate(-251.653 -83.657)" fill="#6aa9fe"/><path d="M363.125,126.583q0-9.252,0-18.5l4.726,0q0,9.257,0,18.514Z" transform="translate(-322.136 -83.905)" fill="#8bbbfe"/><path d="M168.828,108.035l-.009,18.521-4.833,0q0-9.264,0-18.527Z" transform="translate(-151.644 -83.868)" fill="#6aa9fe"/><path d="M247.2,126.553q-.006-9.268-.013-18.536l4.838.017q0,9.251,0,18.5Z" transform="translate(-222.876 -83.854)" fill="#8dbcfe"/></g></g></svg>