<svg xmlns="http://www.w3.org/2000/svg" width="129.347" height="33.035" viewBox="0 0 129.347 33.035"><g transform="translate(0 0)"><path d="M484.959,409.4Z" transform="translate(-356.424 -397.164)" fill="#fefefe"/><path d="M473.807,400.728a34.512,34.512,0,0,0-.965,5.294c-.661,3.808-1.216,7.635-1.821,11.453-.157,1-.573,1.361-1.6,1.4-.589.023-1.179.014-1.769,0-1.163-.022-1.316-.175-1.136-1.361.517-3.407,1.062-6.809,1.6-10.213.367-2.324.769-4.644,1.092-6.974.109-.789.356-1.075,1.2-.977,1.123.129,2.269-.032,3.4.112Z" transform="translate(-344.46 -390.547)" fill="#1399d5"/><path d="M117.059,402.816c-1.851-.008-3.7-.01-5.552-.026-1.289-.011-1.6-.37-1.412-1.6q1.973-12.826,3.95-25.651c.23-1.491.664-1.879,2.14-1.88q5.174,0,10.348.015a13.653,13.653,0,0,1,3.856.529,6.334,6.334,0,0,1,4.917,6.485c0,.378-.028.756-.043,1.133a.957.957,0,0,1-.961.1c-3.142-1.105-6.4-.667-9.62-.744-.672-.016-1.344-.017-2.016,0-1.333.041-1.669.275-1.871,1.546-.528,3.317-1.076,6.631-1.512,9.962-.8,2.75-1.028,5.607-1.579,8.4C117.583,401.7,117.6,402.367,117.059,402.816Z" transform="translate(-110.044 -373.66)" fill="#263b80"/><path d="M129.674,419.043c.517-3.11,1.051-6.218,1.532-9.334.06-.391.384-.515.49-.818.213-1.074,1.1-1.023,1.871-1.061a42.561,42.561,0,0,0,5.159-.25,9.957,9.957,0,0,0,8.561-7.683c.153-.548.132-1.191.694-1.565a5.627,5.627,0,0,1,2.148,4.38,12.337,12.337,0,0,1-1.238,6.112,8.349,8.349,0,0,1-6.638,4.639,20.525,20.525,0,0,1-3.14.243c-1.123.008-1.368.3-1.53,1.4-.312,2.118-.711,4.224-.972,6.349a1.22,1.22,0,0,1-1.281,1.252c-1.723.051-3.45.047-5.174.021-.749-.011-1.024-.486-.906-1.2C129.388,420.7,129.533,419.87,129.674,419.043Z" transform="translate(-122.66 -389.887)" fill="#1399d5"/><path d="M1246.819-2703.236c-.323,0-.592,0-.847-.01-.517-.014-.787-.048-.922-.208s-.127-.441-.064-.908c.2-1.461.435-2.94.665-4.37l.014-.084c.061-.376.123-.763.183-1.144.517-3.257,1.048-6.568,1.561-9.771l0-.03.1-.64c.026-.156.055-.313.084-.465v0c.041-.212.082-.431.111-.648a1.385,1.385,0,0,1,.437-.927,1.46,1.46,0,0,1,.977-.292h.041c.469.007.98.01,1.61.01l1.121,0h.066l1.4,0c.229.014.477.02.781.02.252,0,.506,0,.774-.009h.029c.25,0,.532-.009.812-.009a10.573,10.573,0,0,1,2.592.262,4.937,4.937,0,0,1,3.089,1.875,4.939,4.939,0,0,1,.542,3.584c-.015.1-.027.205-.038.3s-.023.215-.039.321a7.759,7.759,0,0,1-2.334,4.761,7.781,7.781,0,0,1-5,1.79c-.4.016-.8.019-1.141.019h-.69c-.279,0-.492,0-.691.006-1.1.02-1.311.2-1.489,1.266-.082.492-.16.993-.237,1.478v.009c-.109.693-.222,1.41-.345,2.117a2.289,2.289,0,0,1-.552,1.382,2.227,2.227,0,0,1-1.431.315l-.3,0h-.1C1247.335-2703.238,1247.075-2703.236,1246.819-2703.236Zm6.194-15.42c-.459,0-.7.219-.773.709-.115.756-.252,1.519-.385,2.258-.035.193-.07.387-.1.581v.006c-.137.767-.206,1.151-.036,1.353.142.17.455.2.984.2.186,0,.4,0,.648-.009h.012c.042,0,.1,0,.174-.007a5.591,5.591,0,0,0,.832-.07,2.84,2.84,0,0,0,2.269-3.374c-.1-1.082-.886-1.587-2.547-1.636-.091,0-.188,0-.314,0h-.286c-.119,0-.26,0-.4-.007Z" transform="translate(-1206.095 2731.354)" fill="#263b80" stroke="rgba(0,0,0,0)" stroke-width="1"/><path d="M1247.531-2703.244c-.4,0-.8,0-1.17,0-.726,0-1.1-.043-1.286-.259s-.157-.617-.031-1.375c.194-1.171.381-2.357.563-3.5.128-.806.259-1.638.393-2.467q.139-.856.277-1.715l.042-.258,0-.027c.447-2.768.91-5.631,1.381-8.443.212-1.267.409-1.428,1.755-1.437.412,0,.86,0,1.409,0l1.108,0h1.414c.233.015.489.022.8.022.239,0,.478,0,.731-.008h.03c.239,0,.511-.008.782-.008a10.372,10.372,0,0,1,2.534.254,7.29,7.29,0,0,1,1.966.759,3.7,3.7,0,0,1,1.248,1.153,5.093,5.093,0,0,1,.477,3.723c-.024.142-.039.287-.055.427-.021.19-.043.385-.083.573a7.552,7.552,0,0,1-2.418,4.359,7.785,7.785,0,0,1-4.769,1.642c-.407.018-.81.021-1.152.021h-.759c-.241,0-.436,0-.615,0-1.157.02-1.39.22-1.562,1.342-.07.46-.139.93-.206,1.383v.005c-.125.852-.254,1.732-.4,2.6-.207,1.229-.231,1.229-1.437,1.239C1248.2-2703.247,1247.885-2703.244,1247.531-2703.244Zm5.371-15.42c-.538,0-.8.252-.888.842-.138.96-.312,1.9-.5,2.892-.075.408-.153.83-.229,1.258a16.516,16.516,0,0,0,1.836.118,5.177,5.177,0,0,0,1.9-.277,2.767,2.767,0,0,0,1.559-3.116c-.13-.973-.908-1.569-2.191-1.676-.255-.022-.517-.024-.77-.024h-.008c-.2,0-.4,0-.605-.014C1252.973-2718.663,1252.936-2718.664,1252.9-2718.664Z" transform="translate(-1155.802 2731.361)" fill="#1399d5" stroke="rgba(0,0,0,0)" stroke-width="1"/><path d="M1250.414-2709.179a5.534,5.534,0,0,1-3.912-1.318,5.418,5.418,0,0,1-1.552-3.9,8.286,8.286,0,0,1,.531-3.326,7.786,7.786,0,0,1,1.661-2.614,7.739,7.739,0,0,1,5.541-2.4h.044a4.978,4.978,0,0,1,3.974,1.59,1.366,1.366,0,0,1,.481-.94,1.446,1.446,0,0,1,.9-.238c.108,0,.224.006.355.017.19.017.4.025.645.025.165,0,.332,0,.492-.007h.009c.163,0,.332-.007.5-.007.187,0,.349,0,.5.014a1.1,1.1,0,0,1,.841.3,1.15,1.15,0,0,1,.119.918c-.557,3.674-1.087,7.054-1.621,10.331-.163,1-.561,1.329-1.637,1.355-.257.005-.532.009-.842.009-.362,0-.744,0-1.051-.008-1.207-.013-1.207-.013-1.239-1.48a6.9,6.9,0,0,1-3.9,1.643C1250.965-2709.191,1250.684-2709.179,1250.414-2709.179Zm2.629-9.862a3.572,3.572,0,0,0-1.669.437,3.388,3.388,0,0,0-2,2.7,4.051,4.051,0,0,0,.6,2.477,2.612,2.612,0,0,0,1.9.943,3.073,3.073,0,0,0,.392.025,3.943,3.943,0,0,0,3.826-3.339,2.653,2.653,0,0,0-1.027-2.571,3.543,3.543,0,0,0-2.021-.672Z" transform="translate(-1190.024 2737.487)" fill="#263b80" stroke="rgba(0,0,0,0)" stroke-width="1"/><path d="M1250.323-2709.175a5.241,5.241,0,0,1-4.029-1.621,5.074,5.074,0,0,1-1.114-2.089,7.635,7.635,0,0,1-.188-2.794,7.854,7.854,0,0,1,2.584-5.046,7.7,7.7,0,0,1,5.14-2.012,7.289,7.289,0,0,1,1.628.185,4.763,4.763,0,0,1,2.5,1.578,1.36,1.36,0,0,1,.228-1.058,1.215,1.215,0,0,1,.924-.283c.077,0,.163,0,.27.007.179.008.369.011.6.011.173,0,.349,0,.519,0h0c.153,0,.343,0,.523,0,.238,0,.437,0,.624.013a1.144,1.144,0,0,1,.887.307,1.23,1.23,0,0,1,.117.988c-.53,3.3-1.077,6.721-1.635,10.183-.171,1.06-.581,1.407-1.688,1.429-.288.005-.581.008-.9.008s-.629,0-.993-.007c-1.11-.016-1.11-.016-1.29-1.261v0c-.205.1-.409.209-.606.312a9,9,0,0,1-2.474,1A8.622,8.622,0,0,1,1250.323-2709.175Zm2.722-9.837a3.556,3.556,0,0,0-3.636,2.981,3.374,3.374,0,0,0,.571,2.719,2.891,2.891,0,0,0,2.269.821c.067,0,.131,0,.191,0a3.666,3.666,0,0,0,3.333-2.3,3.031,3.031,0,0,0-.016-2.928,3.082,3.082,0,0,0-2.684-1.287Z" transform="translate(-1139.909 2737.497)" fill="#1399d5" stroke="rgba(0,0,0,0)" stroke-width="1"/><path d="M152.375,395.747a13.77,13.77,0,0,1-1.829,5.025,10.182,10.182,0,0,1-7.311,4.559,30.318,30.318,0,0,1-5.381.226,1.981,1.981,0,0,0-1.763.749c-.427-.685,0-1.386.1-2.017.411-2.748.848-5.491,1.238-8.243.182-1.288.6-1.59,1.931-1.592,1.888,0,3.78.088,5.661-.023a20.171,20.171,0,0,1,7.255,1.036Z" transform="translate(-127.053 -387.302)" fill="#232c65"/><path d="M330.077,425.331c1.442-2.227,2.777-4.214,4.026-6.254a1.97,1.97,0,0,1,2.05-1.1c.835.074,1.684-.016,2.524.028.693.036.87.393.557,1a4.692,4.692,0,0,1-.361.516c-3.484,5-6.992,9.992-10.432,15.026a2.406,2.406,0,0,1-2.5,1.259,16.361,16.361,0,0,0-1.64-.015c-.366-.008-.787.1-1.006-.333-.209-.409.037-.724.257-1.035.851-1.2,1.667-2.429,2.568-3.592a1.914,1.914,0,0,0,.322-2.055c-1.053-2.922-2.021-5.874-3.016-8.816a5.438,5.438,0,0,1-.271-.967.621.621,0,0,1,.6-.787,5.045,5.045,0,0,1,.63-.019c4.143.077,3.184-.6,4.421,3.182C329.209,422.6,329.6,423.841,330.077,425.331Z" transform="translate(-250.205 -402.799)" fill="#263b80"/></g></svg>