<svg xmlns="http://www.w3.org/2000/svg" width="262.386" height="20.508" viewBox="0 0 262.386 20.508"><g transform="translate(-181.105 -2745.001)"><g transform="translate(181.105 2746.549)"><path d="M484.815,409.4Z" transform="translate(-414.361 -402.691)" fill="#fefefe"/><path d="M470.482,400.1a18.922,18.922,0,0,0-.529,2.9c-.362,2.087-.667,4.185-1,6.277-.086.546-.314.746-.879.768-.323.013-.646.008-.969,0-.638-.012-.721-.1-.623-.746.283-1.867.582-3.732.876-5.6.2-1.274.422-2.545.6-3.823.06-.432.2-.589.659-.536.615.071,1.243-.018,1.864.061Z" transform="translate(-399.584 -394.518)" fill="#1399d5"/><path d="M113.889,389.641q-1.521,0-3.043-.014c-.707-.006-.878-.2-.774-.875q1.081-7.03,2.165-14.06c.126-.817.364-1.03,1.173-1.031q2.836,0,5.672.008a7.485,7.485,0,0,1,2.114.29,3.472,3.472,0,0,1,2.7,3.555c0,.207-.015.414-.024.621a.524.524,0,0,1-.527.056c-1.722-.606-3.508-.366-5.273-.408-.368-.009-.737-.009-1.105,0-.731.023-.915.151-1.026.847-.289,1.818-.59,3.635-.829,5.461-.438,1.507-.564,3.073-.865,4.606C114.176,389.031,114.188,389.4,113.889,389.641Z" transform="translate(-110.044 -373.66)" fill="#263b80"/><path d="M129.471,409.684c.284-1.7.576-3.408.84-5.116.033-.214.211-.283.269-.449.117-.589.6-.561,1.025-.581a23.325,23.325,0,0,0,2.828-.137,5.458,5.458,0,0,0,4.692-4.211c.084-.3.073-.653.38-.858a3.085,3.085,0,0,1,1.177,2.4,6.762,6.762,0,0,1-.678,3.35,4.577,4.577,0,0,1-3.639,2.543,11.252,11.252,0,0,1-1.721.133c-.616,0-.75.166-.838.766-.171,1.161-.39,2.315-.533,3.48a.669.669,0,0,1-.7.686c-.945.028-1.891.026-2.836.012-.411-.006-.561-.267-.5-.658C129.315,410.591,129.394,410.138,129.471,409.684Z" transform="translate(-125.626 -393.703)" fill="#1399d5"/><path d="M1245.97-2712.05c-.177,0-.324,0-.464-.006-.283-.008-.431-.027-.506-.114s-.07-.242-.035-.5c.108-.8.238-1.611.365-2.4l.007-.046c.033-.206.067-.418.1-.627.284-1.785.574-3.6.855-5.355v-.017l.056-.351c.014-.085.03-.171.046-.255h0c.022-.116.045-.236.061-.355a.758.758,0,0,1,.24-.508.8.8,0,0,1,.536-.16h.022c.257,0,.537.006.882.006h1.416c.125.008.261.011.428.011h.44c.137,0,.292,0,.445,0a5.808,5.808,0,0,1,1.421.144,2.7,2.7,0,0,1,1.693,1.028,2.706,2.706,0,0,1,.3,1.965c-.008.056-.015.112-.021.167s-.013.118-.022.176a4.252,4.252,0,0,1-1.279,2.61,4.264,4.264,0,0,1-2.742.981c-.218.009-.438.01-.625.01h-.757c-.6.011-.719.108-.816.694-.045.27-.088.544-.13.81h0c-.06.38-.121.773-.189,1.16a1.253,1.253,0,0,1-.3.758,1.221,1.221,0,0,1-.784.173h-.221Zm3.4-8.452c-.252,0-.383.12-.424.389-.063.414-.138.833-.211,1.238l-.057.318h0c-.075.42-.113.631-.02.742.078.093.249.111.539.111h.462a3.038,3.038,0,0,0,.456-.039,1.555,1.555,0,0,0,1.012-.662,1.556,1.556,0,0,0,.232-1.187c-.055-.593-.486-.87-1.4-.9h-.551Z" transform="translate(-1223.649 2727.461)" fill="#263b80" stroke="rgba(0,0,0,0)" stroke-width="1"/><path d="M1246.36-2712.05h-.641c-.4,0-.6-.023-.7-.142s-.086-.338-.017-.754c.106-.642.209-1.292.308-1.92.07-.441.142-.9.216-1.352l.152-.94.023-.142v-.015c.245-1.517.5-3.086.757-4.628.116-.694.224-.783.962-.788h2.154c.128.008.268.012.441.012h.846a5.677,5.677,0,0,1,1.389.139,3.994,3.994,0,0,1,1.078.416,2.027,2.027,0,0,1,.684.632,2.79,2.79,0,0,1,.261,2.041c-.013.078-.022.157-.03.234-.012.1-.023.211-.046.314a4.139,4.139,0,0,1-1.325,2.389,4.27,4.27,0,0,1-2.614.9c-.223.01-.444.011-.631.011h-.753c-.634.011-.762.121-.856.735-.039.252-.076.51-.113.758h0c-.068.467-.139.95-.219,1.423-.114.673-.126.673-.788.679Zm2.944-8.452c-.3,0-.44.138-.487.462-.076.526-.171,1.041-.272,1.585-.041.224-.084.455-.126.689a9.06,9.06,0,0,0,1.006.065,2.84,2.84,0,0,0,1.042-.152,1.517,1.517,0,0,0,.854-1.708c-.071-.533-.5-.86-1.2-.919-.14-.012-.283-.013-.422-.013h0c-.109,0-.221,0-.332-.007Z" transform="translate(-1196.083 2727.464)" fill="#1399d5" stroke="rgba(0,0,0,0)" stroke-width="1"/><path d="M1247.94-2715.3a3.034,3.034,0,0,1-2.144-.723,2.971,2.971,0,0,1-.851-2.138,4.539,4.539,0,0,1,.291-1.823,4.264,4.264,0,0,1,.91-1.433,4.242,4.242,0,0,1,3.037-1.314h.024a2.729,2.729,0,0,1,2.178.871.748.748,0,0,1,.264-.515.794.794,0,0,1,.493-.132,1.529,1.529,0,0,1,.194.009c.1.009.217.014.354.014h.549c.092,0,.191,0,.273.008a.606.606,0,0,1,.461.166.629.629,0,0,1,.065.5c-.3,2.014-.6,3.866-.888,5.663-.089.548-.307.729-.9.743h-1.038c-.662-.007-.662-.007-.679-.812a3.785,3.785,0,0,1-2.137.9C1248.24-2715.31,1248.09-2715.3,1247.94-2715.3Zm1.441-5.406a1.951,1.951,0,0,0-.915.24,1.858,1.858,0,0,0-1.1,1.48,2.221,2.221,0,0,0,.328,1.358,1.432,1.432,0,0,0,1.042.517,1.665,1.665,0,0,0,.215.013,2.162,2.162,0,0,0,2.1-1.831,1.455,1.455,0,0,0-.563-1.409,1.941,1.941,0,0,0-1.108-.369Z" transform="translate(-1214.84 2730.822)" fill="#263b80" stroke="rgba(0,0,0,0)" stroke-width="1"/><path d="M1247.89-2715.3a2.873,2.873,0,0,1-2.208-.888,2.785,2.785,0,0,1-.611-1.145,4.181,4.181,0,0,1-.1-1.531,4.3,4.3,0,0,1,1.416-2.766,4.223,4.223,0,0,1,2.817-1.1,3.988,3.988,0,0,1,.892.1,2.615,2.615,0,0,1,1.372.865.745.745,0,0,1,.125-.58.664.664,0,0,1,.506-.156h.148c.1,0,.2.006.329.006h.571c.131,0,.239,0,.342.007a.628.628,0,0,1,.486.168.675.675,0,0,1,.064.541c-.29,1.811-.59,3.684-.9,5.582-.094.581-.318.771-.925.783h-1.036c-.608-.009-.608-.009-.707-.691h0c-.112.056-.224.115-.332.171a4.923,4.923,0,0,1-1.356.547A4.766,4.766,0,0,1,1247.89-2715.3Zm1.492-5.392a1.949,1.949,0,0,0-1.993,1.634,1.849,1.849,0,0,0,.313,1.491,1.587,1.587,0,0,0,1.244.45h.1a2.009,2.009,0,0,0,1.827-1.262,1.661,1.661,0,0,0-.009-1.6,1.69,1.69,0,0,0-1.471-.7Z" transform="translate(-1187.371 2730.827)" fill="#1399d5" stroke="rgba(0,0,0,0)" stroke-width="1"/><path d="M144.932,395.139a7.548,7.548,0,0,1-1,2.754,5.581,5.581,0,0,1-4.007,2.5,16.614,16.614,0,0,1-2.95.124,1.086,1.086,0,0,0-.966.41c-.234-.376,0-.76.053-1.106.225-1.506.465-3.01.678-4.518.1-.706.329-.871,1.058-.873,1.035,0,2.072.048,3.1-.013a11.058,11.058,0,0,1,3.977.568Z" transform="translate(-131.053 -390.51)" fill="#232c65"/><path d="M326.944,422c.79-1.221,1.522-2.31,2.207-3.428a1.08,1.08,0,0,1,1.123-.6c.458.041.923-.009,1.383.015.38.02.477.215.3.55a2.575,2.575,0,0,1-.2.283c-1.91,2.743-3.833,5.477-5.718,8.236a1.319,1.319,0,0,1-1.368.69,8.961,8.961,0,0,0-.9-.008c-.2,0-.431.053-.552-.183s.02-.4.141-.567c.466-.658.914-1.331,1.407-1.969a1.049,1.049,0,0,0,.177-1.126c-.577-1.6-1.108-3.22-1.653-4.832a2.98,2.98,0,0,1-.149-.53.34.34,0,0,1,.328-.432,2.757,2.757,0,0,1,.346-.01c2.271.042,1.745-.33,2.423,1.744C326.468,420.507,326.682,421.185,326.944,422Z" transform="translate(-283.164 -409.651)" fill="#263b80"/></g><g transform="translate(268.668 2745)"><path d="M-298.82,156.662a7.266,7.266,0,0,0-.713.566,9.627,9.627,0,0,1-3.113,1.612,11.383,11.383,0,0,1-2.51.433,10.478,10.478,0,0,1-2.107-.09,8.716,8.716,0,0,1-2.016-.528,11.377,11.377,0,0,1-2.636-1.472,9.464,9.464,0,0,1-2.632-2.938,10.077,10.077,0,0,1-1.269-3.592,10.623,10.623,0,0,1-.139-1.848,10.56,10.56,0,0,1,.4-2.672,10.167,10.167,0,0,1,2.238-3.937,10.386,10.386,0,0,1,3.494-2.562,8.872,8.872,0,0,1,2.676-.754,10.622,10.622,0,0,1,1.723-.086,10.7,10.7,0,0,1,3.038.527,10.631,10.631,0,0,1,3.548,2.1.083.083,0,0,0,.024.01,1.718,1.718,0,0,1,.6.462c.061.062.126.138.089.232s-.137.1-.224.1c-.3.016-.6.005-.893.007a.507.507,0,0,0-.419.178c-.043.053-.117.1-.093.177s.117.058.183.059h1.708a.885.885,0,0,1,.741.637c.021.115-.037.162-.133.186a1.269,1.269,0,0,1-.314.021H-300.2c-.146,0-.282.008-.363.154-.029.052-.088.1-.062.165s.106.044.163.045h3.311a.671.671,0,0,1,.716.615.16.16,0,0,1-.017.139.16.16,0,0,1-.12.072,1.514,1.514,0,0,1-.34.02H-300.8c-.18,0-.352,0-.44.205-.054.127-.045.2.112.208h4.519c.461,0,.591.112.682.551a.2.2,0,0,1-.017.191.2.2,0,0,1-.169.089,1.913,1.913,0,0,1-.341.015h-4.835c-.145,0-.307-.028-.391.143-.064.131-.057.221.122.218s.333,0,.5,0h4.861c.466,0,.584.121.606.585.007.151-.046.234-.2.249a1.513,1.513,0,0,1-.157.01c-1.98,0-3.959.008-5.938,0h-.683a.247.247,0,0,0-.2.051.247.247,0,0,0-.092.181c-.188,1.167-.429,2.326-.6,3.5-.056.372.068.539.438.613a1.788,1.788,0,0,0,.782-.013.347.347,0,0,0,.279-.247c.07-.238.04-.285-.211-.3-.374-.019-.489-.152-.427-.518.082-.492.164-.985.254-1.476.058-.316.085-.337.408-.36a.412.412,0,0,0,.283-.191.412.412,0,0,0,.042-.339c-.051-.1-.156-.049-.237-.062-.1-.016-.2-.024-.237-.132a.194.194,0,0,1,.1-.246.9.9,0,0,1,.338-.039h5.753c.173,0,.387-.051.45.206a.377.377,0,0,1-.036.227,4.936,4.936,0,0,0-.446,1.3.169.169,0,0,1-.138.106,8.619,8.619,0,0,1-.906.006.123.123,0,0,1-.1-.034.123.123,0,0,1-.038-.1.672.672,0,0,1,.567-.485.486.486,0,0,0,.5-.468c0-.026.02-.049.024-.075.014-.1.144-.208.054-.285s-.235-.006-.345.045a1.663,1.663,0,0,0-.439.33c-.052.05-.11.094-.187.063s-.069-.119-.054-.182c.055-.228-.08-.275-.259-.287-.07,0-.14-.006-.21,0-.286.005-.337.043-.379.322-.152,1-.351,2-.511,3.005-.042.261-.043.261.224.264h.131c.253.023.481.011.514-.321,0-.034.043-.053.074-.071a12.568,12.568,0,0,1,1.574-.023c.151,0,.224.082.194.24a2.254,2.254,0,0,1-.085.331.3.3,0,0,1-.317.221c-1.743,0-3.487.019-5.23.006a.734.734,0,0,0-.157,0c-.081.017-.225-.056-.222.1,0,.126.037.269.2.3a1.418,1.418,0,0,0,.262.009h4.732c.5,0,.55.09.359.556a.437.437,0,0,1-.48.274h-4.154a1.578,1.578,0,0,0-.21,0c-.087.012-.2-.05-.248.078-.033.1.125.317.236.342a1.18,1.18,0,0,0,.262.011h3.759c.442,0,.479.077.279.467a.607.607,0,0,1-.625.367c-.99-.017-1.98-.007-2.97-.006a.582.582,0,0,0-.279.027c.124.328.187.373.491.373h2.471c.094,0,.211-.03.268.065.067.111-.042.191-.091.28a.834.834,0,0,1-.884.469c-.365-.033-.735-.008-1.1-.006a.5.5,0,0,0-.269.037.651.651,0,0,0,.649.4,2.11,2.11,0,0,1,.5.008c.162.022.2.109.092.23A.915.915,0,0,1-298.82,156.662Z" transform="translate(315.96 -138.788)" fill="#ec1a2d"/><path d="M-44.81,148.064c0-.173-.07-.23-.252-.23-2.091.008-4.181.006-6.272.007a.709.709,0,0,1,.1-.584h6.2a.36.36,0,0,0,.063-.014,1.468,1.468,0,0,0-.064-.422c-.041-.239-.044-.241-.282-.241h-5.677a.275.275,0,0,1-.16-.021.2.2,0,0,1,.008-.068c.086-.448.086-.448.525-.448h5.23c.106,0,.143-.05.094-.151a.214.214,0,0,1-.007-.025c-.168-.5-.168-.5-.7-.5h-4.745a2.179,2.179,0,0,1,.2-.515c.035-.1.135-.06.207-.061h4.284a.716.716,0,0,0,.274-.022,2.57,2.57,0,0,0-.273-.581c-.055-.109-.169-.073-.261-.073h-3.8c.032-.2.183-.328.248-.5.028-.071.092-.05.156-.049,1.042.005,2.085.005,3.127.006a1.2,1.2,0,0,0,.124-.015,3.025,3.025,0,0,0-.422-.628c-.055-.071-.149-.037-.224-.037h-1.917a.465.465,0,0,1-.272-.032,2.325,2.325,0,0,1,.4-.5c.064-.064.148-.041.225-.042h1c.065,0,.138.028.207-.035-.162-.289-.478-.427-.666-.686a9.947,9.947,0,0,1,3.825-2.2,10.354,10.354,0,0,1,3.835-.406,10.265,10.265,0,0,1,2.968.678,10.328,10.328,0,0,1,3.884,2.7,9.822,9.822,0,0,1,2.434,4.9,10.067,10.067,0,0,1-.687,6.071,10.168,10.168,0,0,1-5.168,5.2,10.084,10.084,0,0,1-3.431.878,9.913,9.913,0,0,1-5.493-1.1,11.744,11.744,0,0,1-2.177-1.5l.491-.517c-.27,0-.5-.01-.726,0a.449.449,0,0,1-.487-.216c-.066-.12-.207-.186-.268-.322.054-.073.13-.041.192-.041.543,0,1.086-.007,1.629,0a.364.364,0,0,0,.336-.155c.116-.162.236-.32.386-.521H-47.84q-.824.006-1.647.019a.292.292,0,0,1-.309-.171,4.165,4.165,0,0,0-.219-.363.389.389,0,0,1,.232-.028h3.338a.3.3,0,0,0,.328-.185c.073-.155.168-.3.24-.457a.494.494,0,0,0-.3-.038h-3.995c-.19,0-.318-.03-.359-.24-.021-.107-.113-.194-.127-.31a.538.538,0,0,1,.288-.029h4.494c.31,0,.31,0,.411-.284.141-.4.141-.4-.276-.4H-50.62c-.312,0-.312,0-.412-.314a.345.345,0,0,1-.037-.238h4.086c.558,0,1.115-.012,1.672,0,.114,0,.165-.024.191-.119.044-.159.155-.35.1-.472-.066-.16-.292-.062-.446-.066-.42-.012-.841,0-1.261-.005a.554.554,0,0,1,.121-.612A4.764,4.764,0,0,1-45.6,150.7c.13-.006.26-.006.39-.006.22.012.213.217.3.347a.4.4,0,0,0,.339.346c.24.134.5.217.748.338.1.1.205,0,.308,0a4.12,4.12,0,0,1,.523-.021.693.693,0,0,0,.7-.51c.062-.01.066.027.058.073.029-.03.008-.06,0-.087a.775.775,0,0,1-.052-.145c-.007-.064-.006-.126.062-.161.034-.069.026.124.068.011.029-.08-.039-.242.155-.183a.513.513,0,0,1,.018.3.384.384,0,0,0,.209.494,1.454,1.454,0,0,0,1.029.29c.243.071.426-.07.618-.178a.2.2,0,0,1,.07-.019c.094,0,.129.11.221.111.21.02.422-.011.63.021.194.066.218-.031.18-.188.02-.134-.006-.28.1-.391.031-.022.077.021.075.017-.068-.132.041-.275-.026-.4-.005-.077-.014-.155.076-.2.056.012.042.063.054.1a.252.252,0,0,0-.006-.069c-.052-.124.031-.25-.006-.374a.121.121,0,0,1,.048-.124.5.5,0,0,0,.045-.41c.023-.151-.014-.318.123-.436.027,0,.054.019.047.044s.013.022.012.019c-.09-.215.013-.467-.127-.673a.539.539,0,0,0-.136-.153,1.653,1.653,0,0,1-.286-.234.57.57,0,0,0-.534-.18.1.1,0,0,1-.118-.039c-.241-.1-.495,0-.738-.049-.087-.017-.018.025-.023.04-.03.068-.087.071-.149.063a.6.6,0,0,0-.522.037.214.214,0,0,0-.127.1.214.214,0,0,0-.017.163,2.161,2.161,0,0,1-.13.539c.113-.016.211-.1.329-.069s.208.09.294-.032a.262.262,0,0,1,.227-.033c.209.055.431-.008.638.078a.366.366,0,0,1,.26.228.366.366,0,0,1-.046.343,1.477,1.477,0,0,1-.649.029c-.115-.022-.216-.121-.345-.071.052-.019.1-.036.129.042-.06.1-.149.084-.24.064a.656.656,0,0,0-.578.147,1.34,1.34,0,0,0-.6.73.7.7,0,0,1-.2.356c-.053,0-.074-.044-.1-.075-.217.048-.407.224-.656.121.038.063.175-.042.15.1a.466.466,0,0,1-.524-.009c0-.1.061-.07.071-.069-.143.054-.308-.046-.486-.072a.474.474,0,0,1-.352-.316c-.055-.273-.118-.545-.174-.819-.011-.1-.03-.192.071-.256a.046.046,0,0,1,.051.043c0,.029,0,.032.016.029-.1-.281.121-.5.143-.762a.663.663,0,0,1,.348-.372,2.059,2.059,0,0,1,1.176-.273c.241-.031.44.179.686.119a1.5,1.5,0,0,0,.089-.621c-.012-.06-.011-.121-.02-.181a.12.12,0,0,0-.078-.1,2.956,2.956,0,0,0-2.306.118.456.456,0,0,0-.22.176,1.911,1.911,0,0,1-.526.547Z" transform="translate(65.273 -138.948)" fill="#fcb331"/><path d="M-293.484,300.949l.591-3.38c-.1.035-.1.127-.124.194-.42,1.007-.839,2.014-1.248,3.025a.221.221,0,0,1-.251.164c-.236-.009-.473-.01-.709,0-.133.005-.176-.033-.183-.172-.052-1.013-.113-2.026-.172-3.038a.212.212,0,0,0-.064-.193c-.079.474-.154.924-.23,1.374-.105.629-.213,1.257-.315,1.886-.018.11-.069.144-.175.142-.253-.005-.506,0-.78,0,.028-.389.114-.751.176-1.116.184-1.085.382-2.167.561-3.252.026-.157.094-.178.223-.176.412,0,.823.009,1.235,0,.17,0,.225.047.232.219.03.734.075,1.467.114,2.2,0,.06.008.121.012.187.111-.016.1-.119.124-.18.319-.746.635-1.494.941-2.246a.242.242,0,0,1,.269-.181q.657.013,1.313,0c.153,0,.2.043.171.2-.1.532-.186,1.067-.281,1.6-.152.859-.309,1.718-.455,2.578-.022.129-.062.18-.2.175C-292.951,300.942-293.2,300.949-293.484,300.949Z" transform="translate(298.134 -288.114)" fill="#fefefe"/><path d="M-199,314.687a1.413,1.413,0,0,1-1.463.292.963.963,0,0,1-.61-1.206,1.406,1.406,0,0,1,1.215-1.074,4.461,4.461,0,0,1,.967-.056c.093.007.2.035.244-.09a.324.324,0,0,0-.053-.322.52.52,0,0,0-.346-.167,3.634,3.634,0,0,0-1.488.165c.079-.266.147-.511.226-.753a.243.243,0,0,1,.209-.142,4.132,4.132,0,0,1,1.663-.02.988.988,0,0,1,.676.428.988.988,0,0,1,.137.789c-.16.768-.289,1.543-.426,2.316-.021.12-.068.163-.188.158-.2-.008-.4-.006-.6,0-.131,0-.111-.075-.1-.155S-198.865,314.7-199,314.687Z" transform="translate(207.149 -302.169)" fill="#fefefe"/><path d="M-46.482,312.335a.3.3,0,0,0,.065-.167,1.707,1.707,0,0,1,1.275-1.322,1.978,1.978,0,0,1,1.11-.013,1.127,1.127,0,0,1,.852.932,3.134,3.134,0,0,1-.021.991c-.026.191-.128.222-.288.209-.585-.046-1.172-.012-1.758-.02-.262,0-.317.087-.2.335a.914.914,0,0,0,.734.484,2.022,2.022,0,0,0,1.151-.154l.145-.057a.077.077,0,0,1,.036.01c-.033.229-.064.461-.1.692a.275.275,0,0,1-.242.213,2.753,2.753,0,0,1-2.081-.229,1.358,1.358,0,0,1-.681-1.17c0-.068.017-.141-.034-.2a.593.593,0,0,1,.037-.534Z" transform="translate(60.729 -301.717)" fill="#fefefe"/><path d="M65.506,292.738l.009.209a1.855,1.855,0,0,1-.119.612c-.05.034-.037.15-.164.086a1.591,1.591,0,0,0-.512-.164.9.9,0,0,1-.336.015,1.429,1.429,0,0,0-.893.286.839.839,0,0,0-.29.323c-.06.226-.144.445-.224.664-.073.083-.034.186-.047.279a4.835,4.835,0,0,0,.165.79.479.479,0,0,0,.29.27,3.856,3.856,0,0,1,.424.161.8.8,0,0,0,.563,0,4.88,4.88,0,0,1,.509-.215c.061.008.045.062.059.1a.091.091,0,0,1-.019.141c-.061.05-.04.116-.035.178s.038.1-.017.138c-.138.453-.31.579-.815.6-.164.005-.328.007-.492.01-.083.017-.168.048-.244-.02a2.818,2.818,0,0,1-.8-.362.4.4,0,0,1-.31-.314L62,296.163c-.188-.155-.171-.392-.24-.594-.007-.04-.022-.079-.03-.118a.822.822,0,0,1,0-.364c.019-.052.07-.081.089-.132a3.933,3.933,0,0,1,.494-1.467c.133-.193.32-.337.467-.517a1.877,1.877,0,0,1,1.123-.489,3.53,3.53,0,0,1,1.465.145.178.178,0,0,1,.138.111Z" transform="translate(-41.853 -284.37)" fill="#fefefe"/><path d="M-134.671,310.772c-.05.219-.1.429-.146.639-.02.088-.059.135-.165.112-.128-.028-.26-.03-.389-.052a1.224,1.224,0,0,0-.6.046c-.3.1-.344.315-.11.527a.681.681,0,0,0,.247.145c.116.038.232.078.345.122a.864.864,0,0,1,.6,1c-.066.77-.586,1.034-1.208,1.116a4.086,4.086,0,0,1-1.435-.054c-.24-.055-.238-.056-.182-.291.033-.136.065-.272.085-.41.017-.12.072-.134.18-.11a3.783,3.783,0,0,0,.956.14.578.578,0,0,0,.365-.122.317.317,0,0,0,.152-.291.317.317,0,0,0-.188-.27,2.116,2.116,0,0,0-.454-.2.922.922,0,0,1-.709-.95,1.1,1.1,0,0,1,.732-1.1,3.146,3.146,0,0,1,1.4-.1,1.613,1.613,0,0,1,.524.1Z" transform="translate(147.109 -301.609)" fill="#fefefe"/><path d="M-78.4,296.433l-.1.583c-.031.238-.031.239.206.24h.31a4.533,4.533,0,0,1-.09.684c-.012.1-.088.084-.161.086-.153.006-.347-.087-.449.037-.082.1-.064.282-.09.427-.081.455-.161.91-.244,1.364-.041.222.031.333.255.365a.866.866,0,0,0,.453-.057,2.1,2.1,0,0,1-.076.572c-.021.114-.122.146-.214.167a2.112,2.112,0,0,1-1.01.012c-.337-.087-.454-.234-.418-.586s.089-.711.16-1.061c.174-.864.314-1.734.466-2.6.043-.247.04-.252.3-.248a4.8,4.8,0,0,1,.7.015Z" transform="translate(92.444 -288.123)" fill="#fefefe"/><path d="M17.507,314.433a2.472,2.472,0,0,0-.1.573.089.089,0,0,0-.013.023c-.092.4-.092.4-.5.4h-.562c.179-1.033.355-2.045.53-3.056.027-.155.056-.31.069-.466a.2.2,0,0,1,.216-.207,6.708,6.708,0,0,1,.707.025c.1.009.108.064.091.14a2.259,2.259,0,0,0-.064.362c.187-.119.321-.3.515-.412a.868.868,0,0,1,.667-.1,2.516,2.516,0,0,0-.31.811.141.141,0,0,1-.157.132c-.069,0-.138.019-.208.025a.7.7,0,0,0-.645.49c.063.2-.056.374-.065.564a2.943,2.943,0,0,1-.166.7Z" transform="translate(1.148 -302.594)" fill="#fefefe"/><path d="M40.86,340.518a1.425,1.425,0,0,1,.122-.574,7.313,7.313,0,0,0,1.086.006.084.084,0,0,1-.022.1.366.366,0,0,0,0,.413.047.047,0,0,1,.021.065,1.927,1.927,0,0,1-1.207-.01Z" transform="translate(-22.099 -329.367)" fill="#fcb131"/><path d="M-55.434,340.223a1.481,1.481,0,0,1-.037.531c-.13,0-.26,0-.39.008s-.153-.043-.151-.153c.011-.478-.083-.393.4-.414a.891.891,0,0,1,.178.028Z" transform="translate(69.681 -329.606)" fill="#fcb332"/><path d="M-161.017,375.628a.081.081,0,0,1,.064-.068c.051-.006.042.041.042.069,0,.057.008.118-.045.162C-160.985,375.74-160.934,375.659-161.017,375.628Z" transform="translate(169.164 -363.11)" fill="#f8a58e"/><path d="M234.338,296.8c.029-.018.059-.053.086-.051a2.773,2.773,0,0,1,.894.048,2,2,0,0,1-.12.718c-.047.032-.042.078-.033.125.016.065.044.132-.019.19a1.685,1.685,0,0,0-.094.491,2.09,2.09,0,0,1-.118.719c-.047.032-.042.078-.032.125.016.065.044.132-.019.19a1.686,1.686,0,0,0-.094.491,2.089,2.089,0,0,1-.118.719c-.047.032-.042.078-.033.125.016.065.044.132-.019.19-.006.006-.016.011-.018.019-.1.366-.1.375-.481.362-.183-.006-.377.067-.55-.05-.019-.289-.183-.015-.263-.068-.042.011-.085.019-.1.065a.9.9,0,0,1-.829.088,1.4,1.4,0,0,1-1.005-1.332.254.254,0,0,0-.029-.069.227.227,0,0,1-.011-.3l.143-.648a1.039,1.039,0,0,1,.38-.719l.312-.33a.8.8,0,0,1,.625-.319c.077-.006.162.029.228-.041a.173.173,0,0,1,.227,0c.1.086.235.027.347.084a.956.956,0,0,1,.518.447,8.63,8.63,0,0,0,.2-1.065C234.292,296.929,234.258,296.854,234.338,296.8Z" transform="translate(-202.508 -288.426)" fill="#fefefe"/><path d="M127.182,310.272c.062.006.128.027.177-.034a1.52,1.52,0,0,1,.755,0c.031.046.076.042.122.033a.744.744,0,0,1,.573.188l.244.194a.753.753,0,0,1,.224.818,1.684,1.684,0,0,0-.094.492.535.535,0,0,1-.065.351c-.047.032-.042.078-.034.124a.488.488,0,0,1-.069.348c-.067.065-.042.149-.048.227a.57.57,0,0,1-.058.352,1.669,1.669,0,0,0-.087.442c.035.139.012.236-.164.216l-.769-.013a.3.3,0,0,1-.056-.259.223.223,0,0,1-.133.1h0a.94.94,0,0,1-.623.229,1.515,1.515,0,0,1-.783-.111,2.5,2.5,0,0,1-.32-.221.45.45,0,0,1-.221-.463v-.369a1.315,1.315,0,0,1,1.218-1.206c.094-.013.2.026.28-.047.042-.057.09-.044.14-.012h.735c.136-.359-.146-.531-.45-.548a2.241,2.241,0,0,1-.441-.017c-.078,0-.161-.036-.229.033s-.162.038-.246.02c-.147-.015-.263.075-.41.117,0-.231.134-.43.145-.652-.05-.16.077-.235.176-.269A.735.735,0,0,1,127.182,310.272Z" transform="translate(-102.526 -301.179)" fill="#fefefe"/><path d="M192.442,312.142a.377.377,0,0,0-.217.237,4.488,4.488,0,0,0-.215.583,1.1,1.1,0,0,0-.085.388c.016.049.037.1-.018.137a2.479,2.479,0,0,0-.1.594,1.456,1.456,0,0,1-.112.668c-.04.032-.072.071-.133.07h-.871l.062-.475a.934.934,0,0,1,.071-.454,6.544,6.544,0,0,0,.19-1.015c-.016-.073-.05-.148.031-.207a1.653,1.653,0,0,0,.075-.373c-.02-.067-.042-.133.019-.192a1.5,1.5,0,0,0,.094-.543.154.154,0,0,1,.013-.194c.047-.031.042-.076.034-.122-.034-.1.016-.168.1-.171a2.173,2.173,0,0,1,.9.036l.045.047c.015.125-.031.245-.009.35.055-.045.1-.161.23-.159a.24.24,0,0,0,.124-.091.529.529,0,0,1,.454-.176l.153.008c.081.164-.023.3-.056.454-.068.065-.037.15-.047.227.048.109.037.192-.1.215-.078,0-.161-.03-.228.038a2.332,2.332,0,0,1-.4.12Z" transform="translate(-164.051 -301.985)" fill="#fefefe"/><path d="M38.95,350.858l1.206.01a2.754,2.754,0,0,0,.178.632c-.071.076-.163.042-.245.043H38.844a2.469,2.469,0,0,1,.106-.685Z" transform="translate(-20.189 -339.707)" fill="#ec1a2d"/><path d="M305.484,365.327a.511.511,0,0,1-.094-.815.347.347,0,0,1,.443-.105c.3.132.4.279.379.545-.015.236-.188.333-.367.427a.265.265,0,0,1-.361-.052Z" transform="translate(-272.567 -352.51)" fill="#fbf3eb"/><path d="M84.786,292.056a2.823,2.823,0,0,0-2.589.151l-.133.08c-.021-.109.064-.166.131-.2a2.886,2.886,0,0,1,2.06-.275,2.5,2.5,0,0,0,.379.088C84.754,291.909,84.753,291.92,84.786,292.056Z" transform="translate(-61.133 -283.688)" fill="#fbab28"/><path d="M124.185,337.615a1.465,1.465,0,0,0-1.219,1.206.368.368,0,0,0-.073.249c0,.023-.039.048-.055.032a.284.284,0,0,1-.032-.09l.019-.141a.577.577,0,0,0,.138-.3,1.451,1.451,0,0,1,1.1-1.014C124.13,337.539,124.188,337.51,124.185,337.615Z" transform="translate(-99.737 -327.089)" fill="#faaa28"/><path d="M202.146,310.363c-.258-.007-.515-.012-.773-.021-.117,0-.2.031-.229.156-.068-.1-.05-.169.064-.2a1.159,1.159,0,0,1,.278-.039c.151,0,.3,0,.453,0C202.021,310.266,202.117,310.248,202.146,310.363Z" transform="translate(-173.918 -301.24)" fill="#faa825"/><path d="M233.7,324.628a.394.394,0,0,0,.1-.215c.053.052.1.107.153-.006.018-.038.056-.011.071.025a3.542,3.542,0,0,0-.38.719c-.044,0-.093-.008-.062-.073a2.16,2.16,0,0,1,.127-.257.163.163,0,0,0-.009-.193Z" transform="translate(-204.678 -314.629)" fill="#fbaa28"/><path d="M154.051,326.845a4.694,4.694,0,0,1,.569,0c.349.039.48.283.321.566-.063-.111.06-.248-.069-.359a.69.69,0,0,0-.422-.163C154.318,326.877,154.176,326.932,154.051,326.845Z" transform="translate(-129.338 -316.946)" fill="#faa826"/><path d="M95.578,311.964a1.027,1.027,0,0,1,.789-.32,3.887,3.887,0,0,1,.44.019c-.071.079-.164.044-.246.042a1.285,1.285,0,0,0-.858.235.168.168,0,0,1-.125.024Z" transform="translate(-73.939 -302.553)" fill="#faa927"/><path d="M247.407,311.671a2.378,2.378,0,0,0-.625.319c-.028-.008-.093-.017-.068-.038a1.351,1.351,0,0,1,.67-.347.33.33,0,0,1,.023.066Z" transform="translate(-217.123 -302.518)" fill="#faaa27"/><path d="M139.758,310.734c-.117.02-.234.05-.351.058a.335.335,0,0,0-.331.265.083.083,0,0,1-.044-.107.578.578,0,0,1,.726-.216Z" transform="translate(-115.102 -301.64)" fill="#fbaa28"/><path d="M188.774,319.8a1.187,1.187,0,0,0-.224-.818.463.463,0,0,1,.281.432,3.852,3.852,0,0,1,.005.527C188.759,319.91,188.793,319.848,188.774,319.8Z" transform="translate(-162.023 -309.511)" fill="#faaa27"/><path d="M108.742,359.728a.814.814,0,0,1-.509.215l-.228-.018c.112-.071.249-.018.363-.092s.253-.08.353-.176Z" transform="translate(-85.712 -348.045)" fill="#faaa27"/><path d="M84.919,342.642a1.144,1.144,0,0,1-.165-.79,2.256,2.256,0,0,1,.165.79Z" transform="translate(-63.675 -331.175)" fill="#fbab29"/><path d="M220.462,311.891l-.307.285a2,2,0,0,1,.085-.475l.025-.083c.093.1,0,.2,0,.29C220.338,311.936,220.387,311.777,220.462,311.891Z" transform="translate(-191.966 -302.53)" fill="#fbaa28"/><path d="M252.08,381.878a1.529,1.529,0,0,0,.829-.088l.026.04a1.091,1.091,0,0,1-.815.111C252.1,381.937,252.093,381.9,252.08,381.878Z" transform="translate(-222.213 -369.013)" fill="#faa826"/><path d="M155.781,309.729h-.755l-.073-.02a2.458,2.458,0,0,1,.846-.034s.011.014.009.017a.383.383,0,0,1-.027.037Z" transform="translate(-130.194 -300.669)" fill="#faa725"/><path d="M85.81,324.57a1.608,1.608,0,0,1,.224-.664c.065.04.03.084.009.132a1.614,1.614,0,0,0-.176.675C85.8,324.674,85.829,324.614,85.81,324.57Z" transform="translate(-64.685 -314.172)" fill="#faaa27"/><path d="M295.781,356.612a3.826,3.826,0,0,1,.118-.719c.086.068.054.157.035.237a3.809,3.809,0,0,0-.1.5s-.014.01-.017.008A.362.362,0,0,1,295.781,356.612Z" transform="translate(-263.616 -344.478)" fill="#faaa27"/><path d="M300.781,327.612a3.826,3.826,0,0,1,.118-.719c.086.068.055.157.035.237a3.813,3.813,0,0,0-.1.5s-.014.01-.017.008a.393.393,0,0,1-.036-.026Z" transform="translate(-268.353 -317.002)" fill="#faaa27"/><path d="M209.782,369.52a4.339,4.339,0,0,1,.112-.668c.08.044.064.122.053.186-.03.169-.072.336-.11.5,0,0-.014.01-.017.009a.393.393,0,0,1-.038-.027Z" transform="translate(-182.139 -356.755)" fill="#fbaa28"/><path d="M305.781,298.627a4.793,4.793,0,0,1,.12-.718c.083.069.052.157.033.238a3.718,3.718,0,0,0-.1.5s-.014.01-.018.008a.386.386,0,0,1-.035-.028Z" transform="translate(-273.09 -289.542)" fill="#faa927"/><path d="M228.4,311.152l-.454.176c-.007,0-.022-.01-.021-.012a.374.374,0,0,1,.475-.164Z" transform="translate(-199.332 -302.057)" fill="#fbab28"/><path d="M173.583,311.066a4.18,4.18,0,0,0-.573-.188.217.217,0,0,1,.011-.047C173.238,310.837,173.454,310.849,173.583,311.066Z" transform="translate(-147.3 -301.785)" fill="#fbab28"/><ellipse cx="0.572" cy="0.017" rx="0.572" ry="0.017" transform="translate(31.736 8.217)" fill="#faa725"/><path d="M215.782,337.05a.768.768,0,0,1,.215-.583,4.31,4.31,0,0,1-.179.614.081.081,0,0,1-.022-.01.1.1,0,0,1-.014-.021Z" transform="translate(-187.823 -326.073)" fill="#fbab28"/><path d="M131.808,302.52a2.3,2.3,0,0,1,.119-.612c.106.147-.031.285-.023.432a.747.747,0,0,1-.049.266.2.2,0,0,1-.034-.037.212.212,0,0,1-.013-.049Z" transform="translate(-108.265 -293.331)" fill="#faa927"/><path d="M151.047,379.919a4.586,4.586,0,0,0,.623-.229.589.589,0,0,1-.623.229Z" transform="translate(-126.492 -367.023)" fill="#fbaa28"/><path d="M94,362.141a.559.559,0,0,1-.424-.161c.216-.02.4.144.64.1C94.138,362.156,94.064,362.119,94,362.141Z" transform="translate(-72.046 -350.243)" fill="#fbaa28"/><path d="M308.045,363.878a.684.684,0,0,0-.443.105c-.057-.031-.044-.063,0-.093a.752.752,0,0,1,.5-.066c.044,0,.011.032-.007.042A.209.209,0,0,1,308.045,363.878Z" transform="translate(-274.78 -351.981)" fill="#faa926"/><path d="M269.841,376.336l.307-.234c.044.113-.033.2-.043.3-.045-.05-.086-.1-.164-.047C269.9,376.384,269.862,376.4,269.841,376.336Z" transform="translate(-239.04 -363.624)" fill="#fbac29"/><path d="M125.533,368.927a1.112,1.112,0,0,0,.221.463.165.165,0,0,1-.013.021A.393.393,0,0,1,125.533,368.927Z" transform="translate(-102.302 -356.826)" fill="#fbab28"/><path d="M238.755,312.365c-.021-.156.074-.3.056-.454a.133.133,0,0,1,.052.182,1.5,1.5,0,0,0-.053.412C238.741,312.47,238.773,312.409,238.755,312.365Z" transform="translate(-209.585 -302.808)" fill="#faa826"/><path d="M71.151,369.813a1.811,1.811,0,0,0,.31.314.284.284,0,0,1-.31-.314Z" transform="translate(-50.797 -357.666)" fill="#faa927"/><path d="M262.322,311.269H262.1l-.124-.02v-.025h.605C262.487,311.285,262.4,311.245,262.322,311.269Z" transform="translate(-231.583 -302.157)" fill="#faa725"/><path d="M191.113,364.691a1.487,1.487,0,0,1-.071.454c-.115-.17.022-.322.035-.483a.078.078,0,0,1,.021.009.1.1,0,0,1,.015.02Z" transform="translate(-164.34 -352.785)" fill="#faa927"/><path d="M224.016,329.738a.552.552,0,0,1,.4-.12l.021.014a.555.555,0,0,1-.421.106Z" transform="translate(-195.624 -319.581)" fill="#fbaa28"/><path d="M185.8,364.206a.639.639,0,0,1,.058-.352c.141.151-.042.289-.016.435C185.8,364.274,185.807,364.235,185.8,364.206Z" transform="translate(-159.414 -352.02)" fill="#fbaa28"/><path d="M187.814,353.278a1.436,1.436,0,0,1,.069-.348c.131.169-.1.318,0,.486C187.8,353.381,187.831,353.322,187.814,353.278Z" transform="translate(-161.325 -341.67)" fill="#faa826"/><path d="M159.8,335.984a1.079,1.079,0,0,1,.441-.015,1.079,1.079,0,0,1-.441.015Z" transform="translate(-134.79 -325.587)" fill="#faa725"/><path d="M189.775,344.244a.884.884,0,0,1,.065-.351c.126.138-.021.254-.029.381a.082.082,0,0,1-.021-.01A.1.1,0,0,1,189.775,344.244Z" transform="translate(-163.184 -333.109)" fill="#faaa27"/><path d="M162.831,377.136a.254.254,0,0,1,.165-.144l.024.306C162.919,377.288,162.956,377.118,162.831,377.136Z" transform="translate(-137.656 -364.467)" fill="#faa926"/><path d="M151.128,336.518l-.14.012c-.06-.021-.131.013-.186-.048C150.909,336.523,151.031,336.351,151.128,336.518Z" transform="translate(-126.26 -326.05)" fill="#faa725"/><path d="M230.609,350.6l.011.3c-.141-.092-.11-.208-.044-.328a.051.051,0,0,1,.033.033Z" transform="translate(-201.786 -339.434)" fill="#faa725"/><path d="M310.074,382.552a.579.579,0,0,0,.361.052C310.255,382.716,310.2,382.708,310.074,382.552Z" transform="translate(-277.157 -369.735)" fill="#faa926"/><path d="M181.048,379.155c.144,0,.133-.126.164-.216a.141.141,0,0,1,.009.207.1.1,0,0,1-.173.009Z" transform="translate(-154.916 -366.312)" fill="#faa926"/><path d="M197.77,329.719l-.019.192c-.154-.08.049-.191-.057-.276C197.765,329.649,197.761,329.687,197.77,329.719Z" transform="translate(-170.683 -319.6)" fill="#faa725"/><path d="M145.014,327.649a.655.655,0,0,1,.246-.02l.021.014a.2.2,0,0,1-.267.006Z" transform="translate(-120.776 -317.697)" fill="#faa725"/><path d="M299.747,343.132a.415.415,0,0,1,.019-.19c.078.067.034.156.041.235,0,.015-.005.058-.039.025C299.753,343.186,299.754,343.155,299.747,343.132Z" transform="translate(-267.37 -332.207)" fill="#faa725"/><path d="M91.791,382.672l.244.02a.247.247,0,0,1-.273.016.063.063,0,0,1,.008-.021.1.1,0,0,1,.021-.015Z" transform="translate(-70.325 -369.849)" fill="#faa725"/><path d="M199.962,316.635l-.013.194a.163.163,0,0,1-.022-.225.049.049,0,0,1,.021.01.1.1,0,0,1,.014.021Z" transform="translate(-172.769 -307.254)" fill="#faa725"/><path d="M304.747,314.132a.414.414,0,0,1,.019-.19c.078.067.034.156.041.235,0,.015-.005.059-.039.025C304.753,314.186,304.754,314.155,304.747,314.132Z" transform="translate(-272.108 -304.732)" fill="#faa725"/><path d="M121.811,369.07l.017-.138c.08.086.039.182.035.289C121.8,369.171,121.826,369.115,121.811,369.07Z" transform="translate(-98.793 -356.831)" fill="#faa725"/><path d="M287.42,297.967l-.031.207c-.029,0-.088.039-.079,0C287.328,298.1,287.316,298,287.42,297.967Z" transform="translate(-255.589 -289.597)" fill="#faa725"/><path d="M195.42,341.967l-.031.207c-.029,0-.088.04-.079,0C195.328,342.1,195.316,342,195.42,341.967Z" transform="translate(-168.427 -331.284)" fill="#faa725"/><path d="M294.747,372.132a.415.415,0,0,1,.019-.19c.078.067.034.155.041.235,0,.015-.005.058-.039.025C294.753,372.186,294.754,372.156,294.747,372.132Z" transform="translate(-262.633 -359.683)" fill="#faa725"/><path d="M213.811,355.079l.019-.137c.087.086.025.183.045.3C213.8,355.18,213.826,355.125,213.811,355.079Z" transform="translate(-185.956 -343.577)" fill="#faa725"/><path d="M-179.717,349.691c.279,0,.285.021.24.265a.751.751,0,0,1-.714.712.4.4,0,0,1-.469-.193.423.423,0,0,1,.145-.491A1.34,1.34,0,0,1-179.717,349.691Z" transform="translate(187.803 -338.602)" fill="#ec1b2d"/><path d="M-22.7,326.376h-.5c-.071,0-.117-.019-.09-.109a.836.836,0,0,1,.4-.553.589.589,0,0,1,.575.025.589.589,0,0,1,.279.5c0,.112-.059.133-.146.134C-22.35,326.377-22.524,326.376-22.7,326.376Z" transform="translate(38.681 -315.823)" fill="#ec1e30"/><path d="M61.795,342.37c-.12-.132-.12-.24,0-.413Z" transform="translate(-41.848 -331.274)" fill="#faa725"/><path d="M254.831,328.917a.537.537,0,0,1,.39.439,1.052,1.052,0,0,1-.012.63,2.048,2.048,0,0,1-.293.548.9.9,0,0,1-.437.3.023.023,0,0,0-.013.018c0,.007.01.013.015.02a.32.32,0,0,1-.445-.145c-.031-.117-.131-.208-.127-.338,0,0,.046-.1-.035-.034a.788.788,0,0,1,0-.563,4.765,4.765,0,0,1,.372-.687c.042-.06.082-.123.165-.132C254.547,328.922,254.7,328.99,254.831,328.917Z" transform="translate(-223.864 -318.92)" fill="#fcb331"/><path d="M264.79,348.449a.262.262,0,0,1-.051-.011c-.06-.025-.036-.04.007-.052a1.1,1.1,0,0,0,.652-.614.929.929,0,0,0,.069-.3.234.234,0,0,1,.038.043.214.214,0,0,1,.012.05A1.008,1.008,0,0,1,264.79,348.449Z" transform="translate(-234.173 -336.498)" fill="#faaa27"/><path d="M255.184,332.467c.022.091-.042.146-.087.208a1.174,1.174,0,0,0-.234.577.272.272,0,0,1-.039-.047.228.228,0,0,1-.012-.051,1.1,1.1,0,0,1,.372-.687Z" transform="translate(-224.801 -322.283)" fill="#fbab28"/><path d="M254.8,353.492c.017-.045-.01-.1.063-.152-.049.2.086.348.1.524a.413.413,0,0,1-.163-.372Z" transform="translate(-224.79 -342.059)" fill="#faa927"/><path d="M265.439,328.583c-.123.146-.278.046-.419.055a.511.511,0,0,1,.419-.055Z" transform="translate(-234.472 -318.586)" fill="#faa826"/><path d="M148.6,350.124c.006.04.014.081-.024.112a1.539,1.539,0,0,0-.266.373.329.329,0,0,1-.177.092,4.2,4.2,0,0,0-.523.049c-.062,0-.089-.047-.115-.094a.622.622,0,0,1,.107-.552.984.984,0,0,1,.74-.3C148.572,349.861,148.572,349.861,148.6,350.124Z" transform="translate(-123.106 -338.71)" fill="#fcb331"/><path d="M150.029,366.392a.725.725,0,0,1,.523-.049.758.758,0,0,1-.523.049Z" transform="translate(-125.527 -354.353)" fill="#faa926"/><path d="M146.83,355.468a1.437,1.437,0,0,0-.107.552.4.4,0,0,1,.107-.552Z" transform="translate(-122.336 -344.075)" fill="#faa927"/><path d="M164.218,349.973c-.077-.229-.077-.229-.258-.318a.53.53,0,0,1,.076-.008c.235.007.252.03.2.252A.725.725,0,0,1,164.218,349.973Z" transform="translate(-138.726 -338.56)" fill="#faaa28"/><path d="M162.64,358.348l-.039-.03c.1-.121.151-.276.3-.343A.657.657,0,0,1,162.64,358.348Z" transform="translate(-137.438 -346.45)" fill="#faa826"/><path d="M307.969,367.3a.388.388,0,1,1-.341-.426.4.4,0,0,1,.341.426Z" transform="translate(-274.431 -354.883)" fill="#fbae2e"/><path d="M311,369.94c-.171-.154-.071.133-.2.092a.444.444,0,0,1-.016-.317c.028-.146.17-.1.256-.076s.153.1.051.2C311.027,369.842,311.1,369.972,311,369.94Z" transform="translate(-277.811 -357.478)" fill="#f9f5f0"/><path d="M315.22,372.846c.042-.028.039-.071.042-.114,0-.021,0-.055.028-.05.011,0,.016.042.024.064a.658.658,0,0,1-.008.073c-.009.043.072.1,0,.123C315.25,372.961,315.236,372.891,315.22,372.846Z" transform="translate(-282.033 -360.384)" fill="#feefe1"/></g><g transform="translate(388.774 2746.549)"><path d="M-1282.49,660.894q-5.552,0-11.1.006c-.276,0-.371-.056-.369-.356q.021-3.482,0-6.964c0-.3.094-.356.369-.356q11.136.01,22.271,0c.259,0,.33.06.329.325q-.016,3.513,0,7.026c0,.265-.071.326-.329.325Q-1276.91,660.887-1282.49,660.894Z" transform="translate(1293.962 -653.213)" fill="#009fdc"/><path d="M-1282.48,826.863q-5.552,0-11.1.007c-.306,0-.378-.087-.376-.385q.019-3.482,0-6.964c0-.26.068-.334.33-.334q11.167.01,22.334,0c.222,0,.305.04.3.288q-.016,3.544,0,7.089c0,.267-.094.3-.323.3Q-1276.9,826.858-1282.48,826.863Z" transform="translate(1293.961 -808.763)" fill="#7fbd41"/><path d="M812.394-3078.33a4.732,4.732,0,0,1-1.664-.273.632.632,0,0,0-.22-.038,1.384,1.384,0,0,0-.308.046c-.058.013-.118.026-.177.035a5.924,5.924,0,0,1-.839.071H805.5c-1.672,0-3.034,0-4.288.008H801.2c-.149,0-.226-.021-.266-.071s-.043-.125-.016-.253c.058-.267.093-.544.123-.8a.254.254,0,0,1,.055-.151.2.2,0,0,1,.154-.049h2.821a1.052,1.052,0,0,1,.232.037h0c.04.009.082.019.126.027-.014-.307-.008-.62,0-.922a8.621,8.621,0,0,0-.061-1.516,1.308,1.308,0,0,0-.456-.969,1.307,1.307,0,0,0-1.027-.3H802.2c-.2,0-.357,0-.505.006h-.025c-.087,0-.139-.015-.167-.049a.217.217,0,0,1-.019-.178c.038-.207.066-.419.094-.624h0c.012-.09.025-.182.038-.273.017-.116.039-.2.176-.2h.243c.155,0,.313,0,.465-.006h0c.152,0,.308-.006.462-.006a5.934,5.934,0,0,1,.933.06,2.814,2.814,0,0,1,.876.283,2.53,2.53,0,0,1,.691.53,2.661,2.661,0,0,1,.48.739,3.2,3.2,0,0,1,.243.915,12.72,12.72,0,0,1,.048,1.686h0c0,.156-.005.316-.006.474a.314.314,0,0,0,.058.231.292.292,0,0,0,.218.056h.022c.349,0,.733-.008,1.208-.008h1.427c.2,0,.315-.013.38-.079s.079-.189.082-.393v-1.651h0v-1.015a1.537,1.537,0,0,1,1-1.548,4.573,4.573,0,0,1,1.712-.354,3.826,3.826,0,0,1,1.228.2,3.021,3.021,0,0,1,.814.415,2.562,2.562,0,0,1,.584.6,2.93,2.93,0,0,1,.374.754,4.157,4.157,0,0,1,.185.89,3.987,3.987,0,0,1-.1,1.43,3.24,3.24,0,0,1-.387.9,2.8,2.8,0,0,1-.611.69,2.781,2.781,0,0,1-.8.45,3.208,3.208,0,0,1-.964.184A1.687,1.687,0,0,1,812.394-3078.33Zm.009-4.984a2.527,2.527,0,0,0-.981.19l-.037.013c-.055.017-.111.035-.089.125a3.136,3.136,0,0,1,.053.909,3.729,3.729,0,0,0,0,.521v.429h0v.947c0,.118,0,.219.162.241l.106.015h.013a5.61,5.61,0,0,0,.783.073,2.4,2.4,0,0,0,.281-.017,1.091,1.091,0,0,0,.963-.781,3.127,3.127,0,0,0,.019-1.906.938.938,0,0,0-.749-.72,3.252,3.252,0,0,0-.527-.035Z" transform="translate(-761.334 3084.848)" stroke="rgba(0,0,0,0)" stroke-width="1"/><path d="M-877.734,661.374h-3.733a2.6,2.6,0,0,1-2.005-.619,2.6,2.6,0,0,1-.895-1.9,5.946,5.946,0,0,1,.134-2.425,2.663,2.663,0,0,1,2.581-2c.742-.019,1.485,0,2.227-.008.2,0,.222.059.185.235a4.446,4.446,0,0,0-.116.8c-.006.269-.14.292-.355.286-.4-.012-.795,0-1.192,0a1.371,1.371,0,0,0-1.08.292,1.371,1.371,0,0,0-.5,1,6.1,6.1,0,0,0-.011,1.875,1.289,1.289,0,0,0,1.411,1.15c1.234.007,2.468,0,3.7,0,1.1,0,2.2.007,3.294,0a.847.847,0,0,0,.751-.351.847.847,0,0,0,.092-.824.808.808,0,0,0-.808-.527,22.15,22.15,0,0,1-2.256-.046,1.739,1.739,0,0,1-1.618-1.53,1.906,1.906,0,0,1,1.053-2.138,3.788,3.788,0,0,1,1.646-.32c1.265-.01,2.531,0,3.8-.007.206,0,.276.036.221.259a4.836,4.836,0,0,0-.127.835c-.013.2-.1.233-.275.232-1.14-.006-2.28,0-3.42,0a3.818,3.818,0,0,0-.438.024.7.7,0,0,0-.534.228.7.7,0,0,0-.179.553.728.728,0,0,0,.234.55.728.728,0,0,0,.566.19c.6.008,1.192,0,1.788,0a2,2,0,0,1,2.09,1.42,1.993,1.993,0,0,1-.192,1.814,1.993,1.993,0,0,1-1.588.9,19.389,19.389,0,0,1-2.287.059c-.721.009-1.443,0-2.165,0Z" transform="translate(910.125 -654.242)"/><path d="M-884.072,844v-2.259a.854.854,0,0,1,.632-.933,6.128,6.128,0,0,1,3.056-.267.614.614,0,0,1,.269.075c.4.316.791.169,1.211.031a3.794,3.794,0,0,1,2.252-.058,1.662,1.662,0,0,1,1.3,1.606c.075,1.4.014,2.8.034,4.2,0,.151-.049.2-.2.2-.47-.007-.941-.013-1.411,0-.223.007-.192-.127-.192-.262v-3.451c0-.357-.033-.716-.414-.872a1.655,1.655,0,0,0-1.275.118.1.1,0,0,0-.054.128,8.362,8.362,0,0,1,.066,1.809c.017.742-.009,1.485.011,2.227.007.258-.079.314-.315.3-.407-.018-.816-.019-1.223,0-.23.011-.274-.074-.272-.285.01-1.129.006-2.259,0-3.388,0-.347.012-.711-.368-.9a1.569,1.569,0,0,0-1.217.062c-.142.045-.073.181-.073.272,0,1.307-.009,2.614,0,3.921,0,.234-.042.329-.3.314-.427-.024-.857-.017-1.286,0-.2.007-.246-.05-.243-.244C-884.065,845.567-884.072,844.782-884.072,844Z" transform="translate(909.796 -828.685)"/><path d="M804.1-3075.93a4.777,4.777,0,0,1-1.451-.226,2.281,2.281,0,0,1-1.084-.715,2.783,2.783,0,0,1-.552-1.183,4.57,4.57,0,0,1,.068-2.294,2.355,2.355,0,0,1,.939-1.359,2.336,2.336,0,0,1,.7-.314,3.114,3.114,0,0,1,.8-.1,3.94,3.94,0,0,1,.452.026,4.365,4.365,0,0,1,.568.115c.092.022.187.046.285.068v-2.411c0-.173.029-.249.228-.274.459-.058.921-.147,1.369-.232h.018a.585.585,0,0,1,.107-.014.1.1,0,0,1,.077.026.214.214,0,0,1,.037.152c-.007,2.057-.009,4.148-.011,6.171v1.387a.915.915,0,0,1-.114.47.7.7,0,0,1-.368.3,6.572,6.572,0,0,1-1.03.3,5.313,5.313,0,0,1-1.038.106Zm-.2-4.817a1.1,1.1,0,0,0-1.128.94,3.365,3.365,0,0,0-.039,1.277c.139.843.56,1.253,1.286,1.253a2.431,2.431,0,0,0,.445-.045.207.207,0,0,0,.054-.013.385.385,0,0,1,.1-.018h.015a.2.2,0,0,0,.153-.049.282.282,0,0,0,.052-.21c-.007-.329,0-.665,0-.988v-1.331c0-.707,0-.707-.716-.8a1.578,1.578,0,0,0-.212-.014Z" transform="translate(-758.971 3093.918)" stroke="rgba(0,0,0,0)" stroke-width="1"/><path d="M806.29-3078.54a.76.76,0,0,1-.152-.021c-.2-.042-.394-.077-.586-.111-.211-.037-.43-.075-.642-.123a1,1,0,0,0-.221-.024,2.24,2.24,0,0,0-.471.068h0c-.1.021-.194.042-.292.055a6.4,6.4,0,0,1-.848.065,3.294,3.294,0,0,1-.829-.1,1.8,1.8,0,0,1-.973-.578,1.706,1.706,0,0,1-.368-1.048,1.779,1.779,0,0,1,.29-1.114,1.785,1.785,0,0,1,.951-.652,4.05,4.05,0,0,1,.91-.17c.306-.025.62-.027.924-.028h.246a1.17,1.17,0,0,1,.146.013h0a1.235,1.235,0,0,0,.15.013.17.17,0,0,0,.168-.075.766.766,0,0,0-.044-.666.692.692,0,0,0-.621-.409c-.123-.012-.249-.018-.376-.018a6.239,6.239,0,0,0-1.778.312c-.121.036-.241.076-.368.119h0l-.181.06-.048-.311v-.01c-.045-.289-.087-.561-.132-.837-.014-.089-.016-.154.1-.189a9.15,9.15,0,0,1,2.712-.533,4.583,4.583,0,0,1,.911.088,1.81,1.81,0,0,1,1.586,1.936v1.306c0,.887,0,1.8.008,2.707a.327.327,0,0,1-.054.234.15.15,0,0,1-.118.042Zm-2.443-2.708a2.424,2.424,0,0,0-.626.069.677.677,0,0,0-.535.771.658.658,0,0,0,.643.609,1.576,1.576,0,0,0,.192.011,2.928,2.928,0,0,0,.646-.089c.294-.066.441-.1.516-.192s.074-.241.074-.54h0v-.47a.183.183,0,0,0-.03-.131.116.116,0,0,0-.086-.03h-.208c-.1,0-.2,0-.292-.006h0c-.1.005-.2,0-.293,0Z" transform="translate(-752.249 3096.603)" stroke="rgba(0,0,0,0)" stroke-width="1"/><path d="M806.314-3078.53a.578.578,0,0,1-.126-.019c-.075-.017-.153-.03-.228-.042a2,2,0,0,1-.354-.078,2.317,2.317,0,0,0-.775-.122,6.354,6.354,0,0,0-.874.081h0c-.24.034-.487.068-.731.078h-.172a3.073,3.073,0,0,1-.94-.136,1.732,1.732,0,0,1-.889-.594,1.692,1.692,0,0,1-.319-1.006,1.84,1.84,0,0,1,.263-1.076,1.7,1.7,0,0,1,.867-.642,4.636,4.636,0,0,1,1.6-.235h.331a1.168,1.168,0,0,0,.2-.015.3.3,0,0,1,.051,0,.888.888,0,0,1,.15.019h0a.851.851,0,0,0,.149.019.2.2,0,0,0,.2-.139.7.7,0,0,0-.039-.536.8.8,0,0,0-.362-.4,1.32,1.32,0,0,0-.569-.108,2.266,2.266,0,0,0-.231.009,6.207,6.207,0,0,0-1.86.389.716.716,0,0,1-.229.059c-.116,0-.167-.086-.171-.289a4.017,4.017,0,0,0-.081-.631h0c-.01-.057-.021-.115-.031-.173a.272.272,0,0,1,0-.129c.013-.037.046-.062.107-.082.4-.126.867-.268,1.334-.37a6.365,6.365,0,0,1,1.359-.159,4.711,4.711,0,0,1,.931.091,1.784,1.784,0,0,1,1.561,1.859c0,.029,0,.058,0,.086h0c0,.043.005.088.005.132v2.388h0c0,.5,0,1.023.008,1.535a.267.267,0,0,1-.045.194.126.126,0,0,1-.09.042Zm-2.458-2.716a2.479,2.479,0,0,0-.6.06.7.7,0,0,0-.581.8.7.7,0,0,0,.731.594h.106a3.089,3.089,0,0,0,.608-.076c.311-.063.467-.1.546-.192s.078-.255.078-.572h0v-.134h0v-.335a.155.155,0,0,0-.026-.114.1.1,0,0,0-.076-.025h-.206c-.1,0-.194,0-.289,0h0c-.1.006-.193,0-.291,0Z" transform="translate(-765.466 3096.603)" stroke="rgba(0,0,0,0)" stroke-width="1"/></g><g transform="translate(315.415 2746.549)"><path d="M-17.8,136.493a4.272,4.272,0,0,0-1.865-1.414,13.388,13.388,0,0,1-2.377-1.311c-2.43-1.854-1.882-6.076.2-7.693a7.812,7.812,0,0,0,.946-.632,11.723,11.723,0,0,1,8.527-.363c.337.1.351.285.3.552-.192.931-.385,1.862-.572,2.794-.065.325-.148.465-.546.3a8.219,8.219,0,0,0-4.921-.507,2.029,2.029,0,0,0-.776.346,1.066,1.066,0,0,0-.574.91,1.066,1.066,0,0,0,.511.946,12.369,12.369,0,0,0,2.4,1.326,13.123,13.123,0,0,1,1.789,1.009,4.5,4.5,0,0,1,2,3.113,4.5,4.5,0,0,1-1.009,3.557c-.137.182-.291.353-.437.528a7.406,7.406,0,0,1-1.449-1.263,12.7,12.7,0,0,1-2.138-2.2Z" transform="translate(54.989 -124.453)" fill="#293687"/><path d="M61.524,163.566c.458,1.914.925,3.825,1.371,5.741.263,1.129.248,1.133-.9,1.133-.974,0-1.947-.019-2.92.01-.377.011-.49-.131-.541-.473-.1-.637-.236-1.267-.358-1.9-.059-.3-.169-.471-.553-.465-1.7.029-3.4.022-5.1,0a.469.469,0,0,0-.526.375c-.263.785-.538,1.567-.808,2.35-1.332.122-2.668.019-4,.053-.32.008-.359-.15-.235-.4a2.251,2.251,0,0,1,.225-.332q3.934-5.294,7.9-10.568a2.194,2.194,0,0,1,.295-.351c.24-.209.371-.132.408.167-.323,1.221-.839,2.372-1.273,3.553q-.316.86-.651,1.714c-.134.342-.038.5.344.5.764-.008,1.528,0,2.292,0,.56-.005.592-.055.486-.6-.324-1.669-.769-3.312-1.051-4.989a1.591,1.591,0,0,1-.039-.568c.047-.16.114-.293.32-.2a1.048,1.048,0,0,1,.316.242c1.49,1.5,3.088,2.891,4.547,4.425a3.194,3.194,0,0,1,.451.583Z" transform="translate(-4.588 -153.022)" fill="#051244"/><path d="M-176.5,150.158c-.687,1.585-1.379,3.168-2.057,4.757a.451.451,0,0,1-.48.307c-1.47,0-2.939-.017-4.409.008-.4.007-.415-.254-.483-.5q-1.4-4.965-2.78-9.932l-1.121-4.005c.01-.2-.294-.443.079-.6a.726.726,0,0,1,.385.114,14.478,14.478,0,0,1,5.024,4.835,6.859,6.859,0,0,1,.391.7c.066.256.2.491.261.747a16.729,16.729,0,0,1,.708,3.246l1.485-3.4a.2.2,0,0,1,.162-.014c1.008.869,1.9,1.863,2.846,2.79C-176.154,149.544-176.427,149.846-176.5,150.158Z" transform="translate(193.739 -137.752)" fill="#051244"/><path d="M51.469,133.336c-.139-.4-.2-.033-.25.037q-2.014,2.662-4.016,5.333-2.117,2.834-4.217,5.682c-.076.1-.243.185-.182.328.076.178.269.1.409.1,1.259.007,2.519,0,3.778,0a.154.154,0,0,1-.172.11h-4.9l1.039-2.181a2.517,2.517,0,0,0,.422-.8c2.074-4.259,4.4-8.39,6.489-12.639a2.132,2.132,0,0,1,2.285-1.221c.839-.005,1.679,0,2.518-.023a.368.368,0,0,1,.438.324q1.1,4.83,2.211,9.659c-.331-.314-.666-.624-.994-.942l-4.185-4.056c-.084-.081-.145-.311-.345-.138C51.642,133.016,51.786,133.349,51.469,133.336Z" transform="translate(-0.38 -127.496)" fill="#293687"/><path d="M-84.007,128.071c1.108-.009,2.217,0,3.324-.036.43-.015.516.136.447.517q-.381,2.109-.739,4.221-.891,5.151-1.778,10.3c-.084.488-.161.977-.24,1.466-.032.2-.064.371-.334.369-1.453-.009-2.9-.007-4.358-.015-.036,0-.072-.067-.107-.1a.65.65,0,0,1,.478-.151q1.8-.009,3.6,0a.828.828,0,0,1,.309.052,7.723,7.723,0,0,1-1.319-1.274c-.6-.688-1.248-1.336-1.889-1.988a1.088,1.088,0,0,1-.373-.561c.191-1.393.527-2.757.835-4.126q.834-3.707,1.684-7.41A2.277,2.277,0,0,1-84.007,128.071Z" transform="translate(109.163 -127.477)" fill="#293687"/><path d="M-32.11,201.9a1.677,1.677,0,0,1,.551.481c.957,1.048,2.117,1.89,3.034,2.977a6.49,6.49,0,0,1-3.756,2.018,15.171,15.171,0,0,1-7.918-.442.463.463,0,0,1-.337-.224.463.463,0,0,1-.033-.4c.188-.99.4-1.978.525-2.977.063-.521.249-.419.574-.275a10.984,10.984,0,0,0,3.8.994,5.622,5.622,0,0,0,2.48-.289,1.461,1.461,0,0,0,.948-.693,1.461,1.461,0,0,0,.132-1.167Z" transform="translate(69.298 -189.857)" fill="#051244"/><path d="M-130.042,140.661c.2-.527-.058-.863-.427-1.215-.84-.8-1.641-1.647-2.458-2.474,1.172-2.466,2.438-4.887,3.585-7.366a1.369,1.369,0,0,1,.447-.652h4.065c.108.109.007.2-.035.3q-2.526,5.614-5.055,11.226a1.264,1.264,0,0,1-.122.181Z" transform="translate(147.28 -128.255)" fill="#293687"/><path d="M-216.936,130.383l-.3-.142a3.688,3.688,0,0,1-1.355-.308c-.2-.054-.368-.2-.588-.155a29.069,29.069,0,0,0-3.662-1.27c.259-.3.594-.085.89-.135,1.806.093,3.6.281,5.4.454.739.071,1.483.107,2.214.247a2.108,2.108,0,0,1,1.877,1.873c.189.642.255,1.315.493,1.945l.8,3.692a2.081,2.081,0,0,1-.333-.689,23.766,23.766,0,0,1-.935-2.748,2.681,2.681,0,0,0-1.806-1.838,23.066,23.066,0,0,1-2.7-.926Z" transform="translate(223.215 -127.74)" fill="#f6971d"/><path d="M57.792,128.2c-.015.012-.031.035-.045.034-1.384-.088-1.906.856-2.442,1.91-2.1,4.129-4.254,8.231-6.389,12.343-.077.149-.124.328-.321.378.685-1.76,1.519-3.454,2.285-5.178,1.178-2.65,2.413-5.275,3.542-7.945a2.268,2.268,0,0,1,2.339-1.543Z" transform="translate(-6.022 -127.613)" fill="#3c58be"/><path d="M-86.883,210.053c1.05,1.107,2.1,2.219,3.155,3.316a3.049,3.049,0,0,0,.572.375l-.144.217h-4.493c.155-1.348.44-2.674.7-4C-86.972,209.883-86.945,210.006-86.883,210.053Z" transform="translate(109.163 -196.645)" fill="#051244"/><path d="M-83.064,141.038l-.207-.094q.819-4.665,1.639-9.33c.155-.881.309-1.762.474-2.641.146-.78.152-.779.97-.749q-1.171,5.128-2.341,10.257C-82.721,139.33-82.886,140.185-83.064,141.038Z" transform="translate(105.344 -127.63)" fill="#3c58be"/><path d="M-24.615,130.818c-.284.415-.756.61-1.109.953a5.267,5.267,0,0,0-.221,7.091,1.665,1.665,0,0,1,.183.281,4.257,4.257,0,0,1-2.245-3.137,4.257,4.257,0,0,1,1.211-3.663,5.527,5.527,0,0,1,2.181-1.525Z" transform="translate(58.708 -129.828)" fill="#3d58be"/><path d="M-207.633,131.112a2.111,2.111,0,0,0-1.97-1.832c-2-.2-4.006-.359-6-.6a4.377,4.377,0,0,1-1.447-.2.568.568,0,0,1,.387-.06h7.1a.719.719,0,0,1,.337.041,1.575,1.575,0,0,1,1.485,1.28c.1.4.16.818.238,1.228C-207.451,131.1-207.522,131.126-207.633,131.112Z" transform="translate(218.326 -127.8)" fill="#febc04"/><path d="M-129.508,128.7c-.614,1.29-1.224,2.582-1.842,3.87q-.891,1.856-1.8,3.7c-.088.178-.122.419-.391.444l-.113-.029c.988-2.417,2-4.824,2.944-7.258C-130.464,128.8-130.157,128.535-129.508,128.7Z" transform="translate(147.893 -127.998)" fill="#3c58be"/><path d="M-216.152,128.1l-7.823.02c-.3.033-.615-.1-.9.085l-.375-.118c.091-.144.214-.089.313-.09h7.947a1.522,1.522,0,0,1,.838.1Z" transform="translate(225.25 -127.438)" fill="#fbc04b"/><path d="M-199.283,137.138c.3-.2.568.034.838.1.376.091.737.24,1.1.364-.242.153.151.39-.072.545Z" transform="translate(203.32 -135.101)" fill="#ea7f08"/><path d="M-156.467,144.987l.127-.142a12.253,12.253,0,0,1,.43,1.981C-156.292,146.273-156.233,145.585-156.467,144.987Z" transform="translate(167.16 -141.675)" fill="#fcb714"/><path d="M-184.864,141.45c1.334.389,2.771.514,3.888,1.471a3.511,3.511,0,0,1,.952,1.907,19.663,19.663,0,0,1,.6,2.134,15.387,15.387,0,0,0-5.44-5.512Z" transform="translate(191.143 -138.808)" fill="#ec7b00"/></g></g></svg>