<svg xmlns="http://www.w3.org/2000/svg" width="177" height="38" viewBox="0 0 177 38"><g transform="translate(-686 -233)"><rect width="177" height="38" rx="19" transform="translate(686 233)" fill="#2e6cce"/><g transform="translate(500.799 -265)"><path d="M25.314,39.512v7.173a.2.2,0,0,0,.2.2h2.907a.2.2,0,0,0,.2-.2v-7.3h2.108a.2.2,0,0,0,.2-.187l.2-2.4a.2.2,0,0,0-.2-.221h-2.3v-1.7a.722.722,0,0,1,.722-.721h1.624a.2.2,0,0,0,.2-.2v-2.4a.2.2,0,0,0-.2-.2H28.231a2.915,2.915,0,0,0-2.917,2.913v2.31H23.86a.2.2,0,0,0-.2.2v2.4a.2.2,0,0,0,.2.2h1.454Z" transform="translate(208.545 477.994)" fill="#fff" fill-rule="evenodd"/><text transform="translate(247.259 523)" fill="#fff" font-size="15" font-family="SegoeUI-Bold, Segoe UI" font-weight="700"><tspan x="0" y="0">Facebook</tspan></text></g></g></svg>