<svg xmlns="http://www.w3.org/2000/svg" width="177" height="38" viewBox="0 0 177 38"><g transform="translate(-504 -233)"><rect width="177" height="38" rx="19" transform="translate(504 233)" fill="#ea4235"/><g transform="translate(444.316 -264.409)"><path d="M18.662,5.666V17.33A1.146,1.146,0,0,1,17.5,18.5H16.329V7.911l-7,5.026-7-5.026V18.5H1.166A1.145,1.145,0,0,1,0,17.33V5.666A1.146,1.146,0,0,1,1.166,4.5h.389l7.776,5.637L17.107,4.5H17.5a1.146,1.146,0,0,1,1.166,1.166Z" transform="translate(113.684 504.909)" fill="#fff"/><text transform="translate(142 522.409)" fill="#fff" font-size="15" font-family="SegoeUI-Bold, Segoe UI" font-weight="700"><tspan x="0" y="0">Gmail</tspan></text></g></g></svg>