<svg xmlns="http://www.w3.org/2000/svg" width="16.939" height="16.939" viewBox="0 0 16.939 16.939"><g transform="translate(0)"><path d="M172.6,2.382l1.15.585V0H171V2.966l1.149-.584a.494.494,0,0,1,.447,0Zm0,0" transform="translate(-165.342 0)" fill="#0e2978" fill-rule="evenodd"/><path d="M14.061,6V.5a.5.5,0,0,0-.5-.5H9.4V3.774a.5.5,0,0,1-.753.425L7.03,3.379l-1.646.837a.5.5,0,0,1-.718-.442V0H.5A.5.5,0,0,0,0,.5V13.564a.5.5,0,0,0,.5.5H6A6.193,6.193,0,0,1,14.061,6Zm0,0" transform="translate(0 0)" fill="#0e2978" fill-rule="evenodd"/><path d="M206.381,199.024a5.2,5.2,0,1,0,1.524,3.679A5.186,5.186,0,0,0,206.381,199.024Zm-1.587,5.308a1.913,1.913,0,0,1-1.356.563h-2.316a.5.5,0,0,1,0-.993h2.316a.943.943,0,0,0,0-1.886h-1.382l.295.294a.495.495,0,1,1-.7.7l-1.14-1.138a.5.5,0,0,1,0-.7l1.138-1.14a.495.495,0,0,1,.7.7l-.291.292h1.379a1.941,1.941,0,0,1,1.356,3.308Zm0,0" transform="translate(-190.966 -190.966)" fill="#0e2978" fill-rule="evenodd"/></g></svg>