<svg xmlns="http://www.w3.org/2000/svg" width="29.913" height="34.961" viewBox="0 0 29.913 34.961"><path d="M2966.583,30.962c-.2-.058-.395-.111-.587-.179a24.711,24.711,0,0,1-5.417-2.621,17.666,17.666,0,0,1-5.977-6.422,22.152,22.152,0,0,1-2.508-9.558c-.133-2.564-.088-5.14-.081-7.71a3.682,3.682,0,0,1,3.372-3.71c.739-.091,1.481-.146,2.216-.261a13.745,13.745,0,0,0,7.241-3.417A4.472,4.472,0,0,1,2966.513-4h.825a4.69,4.69,0,0,1,1.847,1.245.18.18,0,0,0,.026.022,13.9,13.9,0,0,0,5.3,2.852,23.2,23.2,0,0,0,4.059.654,3.718,3.718,0,0,1,3.271,3.491,67.562,67.562,0,0,1-.13,8.662,26.088,26.088,0,0,1-1.175,5.838,17.6,17.6,0,0,1-6.838,9.1,23.6,23.6,0,0,1-6.425,3.094Zm-8.429-17.488a8.772,8.772,0,1,0,8.771-8.705A8.778,8.778,0,0,0,2958.153,13.473Zm8.72,6.658a6.646,6.646,0,1,1,.108,0Zm-4.07-6.4a1.047,1.047,0,0,0,.1,1.543q.784.788,1.578,1.569a1.083,1.083,0,0,0,1.772,0l4.491-4.463a2.46,2.46,0,0,0,.255-.275,1.011,1.011,0,0,0-.522-1.576,1.068,1.068,0,0,0-1.142.35c-1.306,1.3-2.616,2.607-3.987,3.97-.351-.365-.668-.707-1-1.035a1.219,1.219,0,0,0-.848-.394A.982.982,0,0,0,2962.8,13.731Z" transform="translate(-2952 4)" fill="#0e2978"/></svg>