<svg xmlns="http://www.w3.org/2000/svg" width="24.65" height="14.588" viewBox="0 0 24.65 14.588"><path d="M17.572.145c2.137.5,2.955,1.746,3.98,3.466h-3.98ZM5.083,3.755a.634.634,0,0,1,.722.674.722.722,0,0,1-.72.722H.722a.722.722,0,0,0,0,1.444h6.5a.722.722,0,1,1,0,1.444H.722a.722.722,0,0,0,0,1.444H2.31v2.166a.722.722,0,0,0,.722.722H4.484a2.769,2.769,0,0,0,5.426,0h7.333a2.769,2.769,0,0,0,5.426,0h1.259a.722.722,0,0,0,.722-.722V7.318a2.33,2.33,0,0,0-2.237-2.263H16.85a.722.722,0,0,1-.722-.722V0H3.033A.722.722,0,0,0,2.31.722V2.311H1.444a.722.722,0,1,0,0,1.444Zm15.809,7.128a1.324,1.324,0,1,1-2.26.936A1.324,1.324,0,0,1,20.892,10.883Zm-12.758,0a1.324,1.324,0,1,1-2.26.936A1.324,1.324,0,0,1,8.133,10.883Zm0,0" transform="translate(0 0)" fill="#0e2978" fill-rule="evenodd"/></svg>