<svg xmlns="http://www.w3.org/2000/svg" width="31.246" height="21.872" viewBox="0 0 31.246 21.872"><path d="M26.246,11.751a4.692,4.692,0,0,0-4.374-6.376,4.663,4.663,0,0,0-2.6.791,7.812,7.812,0,0,0-14.583,3.9c0,.132,0,.264.01.4A7.032,7.032,0,0,0,7.03,24.122H25a6.249,6.249,0,0,0,1.25-12.371Zm-6.488,4.33-5.146,5.146a.784.784,0,0,1-1.1,0L8.363,16.081a.781.781,0,0,1,.552-1.333h3.193V9.28a.783.783,0,0,1,.781-.781h2.343a.783.783,0,0,1,.781.781v5.468h3.193a.781.781,0,0,1,.552,1.333Z" transform="translate(0 -2.25)" fill="#0e2978"/></svg>