<svg xmlns="http://www.w3.org/2000/svg" xmlns:xlink="http://www.w3.org/1999/xlink" width="70" height="70" viewBox="0 0 70 70"><defs><filter id="a" x="0" y="0" width="70" height="70" filterUnits="userSpaceOnUse"><feOffset dy="2" input="SourceAlpha"/><feGaussianBlur stdDeviation="7" result="b"/><feFlood flood-color="#61e353" flood-opacity="0.251"/><feComposite operator="in" in2="b"/><feComposite in="SourceGraphic"/></filter></defs><g transform="translate(-191 -233)"><g transform="translate(-148 11)"><g transform="translate(-591.436 -60.435)"><g transform="matrix(1, 0, 0, 1, 930.44, 282.44)" filter="url(#a)"><rect width="28" height="28" rx="9" transform="translate(21 19)" fill="#61e353"/></g></g></g><path d="M157.836-12.8h-.2c-.121-.085-.249-.161-.361-.257-.272-.234-.538-.475-.8-.717a.113.113,0,0,0-.184,0c-.267.245-.536.488-.811.724-.109.094-.235.167-.353.25h-.2a3.118,3.118,0,0,1-.334-.222c-.287-.246-.567-.5-.846-.755-.065-.059-.108-.063-.175,0-.214.2-.434.384-.65.578a.478.478,0,0,1-.547.111.485.485,0,0,1-.288-.489q0-4.861,0-9.721a.481.481,0,0,1,.283-.481.474.474,0,0,1,.547.107c.207.187.421.366.625.557.083.078.138.085.226,0,.282-.263.572-.516.86-.773a.5.5,0,0,1,.783,0c.292.263.587.522.876.787a.113.113,0,0,0,.184,0c.3-.273.6-.54.9-.809a.488.488,0,0,1,.733,0c.3.268.6.535.9.808.074.068.121.064.192,0,.211-.194.428-.381.642-.57a.533.533,0,0,1,.323-.15.484.484,0,0,1,.508.534q0,4.855,0,9.71a.484.484,0,0,1-.288.489.478.478,0,0,1-.546-.112c-.215-.194-.436-.382-.65-.578-.067-.061-.111-.056-.175,0-.273.25-.548.5-.829.741A3.509,3.509,0,0,1,157.836-12.8Zm-1.453-5.422H158.8a.648.648,0,0,0,.163-.016.189.189,0,0,0,.149-.193c0-.145-.1-.22-.291-.22h-4.888a.535.535,0,0,0-.141.016.189.189,0,0,0-.149.193.19.19,0,0,0,.149.2.638.638,0,0,0,.163.016Zm.012,1.171h-2.443a.81.81,0,0,0-.121,0,.206.206,0,0,0-.182.213.2.2,0,0,0,.192.2.989.989,0,0,0,.11,0h4.865a.9.9,0,0,0,.121,0,.2.2,0,0,0,.18-.233c-.013-.119-.1-.185-.255-.186Zm-1.223-2.773c.433,0,.866,0,1.3,0,.178,0,.281-.119.241-.271-.027-.1-.111-.151-.261-.152h-2.532a.526.526,0,0,0-.11.007.209.209,0,0,0-.137.3.237.237,0,0,0,.234.114C154.327-19.821,154.749-19.82,155.171-19.82Z" transform="translate(69.91 284.434)" fill="#fff"/></g></svg>