<svg xmlns="http://www.w3.org/2000/svg" xmlns:xlink="http://www.w3.org/1999/xlink" width="70" height="70" viewBox="0 0 70 70"><defs><filter id="a" x="0" y="0" width="70" height="70" filterUnits="userSpaceOnUse"><feOffset dy="2" input="SourceAlpha"/><feGaussianBlur stdDeviation="7" result="b"/><feFlood flood-color="#5392e3" flood-opacity="0.251"/><feComposite operator="in" in2="b"/><feComposite in="SourceGraphic"/></filter></defs><g transform="translate(-339 -222)"><g transform="translate(-591.436 -60.435)"><g transform="matrix(1, 0, 0, 1, 930.44, 282.44)" filter="url(#a)"><rect width="28" height="28" rx="9" transform="translate(21 19)" fill="#5392e3"/></g></g><g transform="translate(336.943 250)"><g transform="translate(33.057)"><path d="M274.115.283A.569.569,0,0,0,273.624,0h-2.108V2.494h3.878Z" transform="translate(-266.82 0)" fill="#fff"/><path d="M47.694,0H45.566a.569.569,0,0,0-.491.284L43.8,2.494h3.893V0Z" transform="translate(-43.589)" fill="#fff"/><path d="M33.057,156.648v6.3a.7.7,0,0,0,.7.695h7.391a.7.7,0,0,0,.7-.695v-6.3Zm5.732,2.651-1.528,1.528a.3.3,0,0,1-.418,0l-.716-.716a.3.3,0,0,1,.418-.418l.507.507,1.32-1.32a.3.3,0,1,1,.418.418Z" transform="translate(-33.057 -153.563)" fill="#fff"/></g></g></g></svg>